<svg version="1.1" xmlns="http://www.w3.org/2000/svg" xmlns:xlink="http://www.w3.org/1999/xlink" width="654" height="543"><defs></defs><g><g transform="translate(-5,-10) scale(1,1)"><rect fill="#C0C0C0" stroke="none" x="55.5" y="246" width="109" height="85" opacity="0.2"></rect></g><g transform="translate(-5,-10) scale(1,1)"><rect fill="#ffffff" stroke="none" x="48.5" y="239" width="109" height="85"></rect></g><g transform="translate(-5,-10) scale(1,1)"><path fill="none" stroke="#000000" d="M 48.5 239 L 157.5 239 L 157.5 324 L 48.5 324 L 48.5 239 Z Z" stroke-miterlimit="10"></path></g><g transform="translate(-5,-10) scale(1,1)"><path fill="none" stroke="#000000" d="M 48.5 264 L 157.5 264" stroke-miterlimit="10"></path></g><g transform="translate(-5,-10) scale(1,1)"><path fill="none" stroke="#000000" d="M 48.5 287 L 157.5 287" stroke-miterlimit="10"></path></g><g transform="translate(-5,-10) scale(1,1)"><g><path fill="none" stroke="none"></path><text fill="#000000" stroke="none" font-family="Arial" font-size="13px" font-style="normal" font-weight="bold" text-decoration="none" x="66.5" y="258.5">GameObject</text></g></g><g transform="translate(-5,-10) scale(1,1)"><g><path fill="none" stroke="none"></path><text fill="#000000" stroke="none" font-family="Arial" font-size="13px" font-style="normal" font-weight="normal" text-decoration="none" x="53.5" y="281.5">+Tranform</text></g></g><g transform="translate(-5,-10) scale(1,1)"><g><path fill="none" stroke="none"></path><text fill="#000000" stroke="none" font-family="Arial" font-size="13px" font-style="normal" font-weight="normal" text-decoration="none" x="53.5" y="304.5">+getComponent()</text></g></g><g transform="translate(-5,-10) scale(1,1)"><g><path fill="none" stroke="none"></path><text fill="#000000" stroke="none" font-family="Arial" font-size="13px" font-style="normal" font-weight="normal" text-decoration="none" x="53.5" y="319.5">+sendMessage()</text></g></g><g transform="translate(-5,-10) scale(1,1)"><rect fill="#C0C0C0" stroke="none" x="99.5" y="362" width="106" height="70" opacity="0.2"></rect></g><g transform="translate(-5,-10) scale(1,1)"><rect fill="#ffffff" stroke="none" x="92.5" y="355" width="106" height="70"></rect></g><g transform="translate(-5,-10) scale(1,1)"><path fill="none" stroke="#000000" d="M 92.5 355 L 198.5 355 L 198.5 425 L 92.5 425 L 92.5 355 Z Z" stroke-miterlimit="10"></path></g><g transform="translate(-5,-10) scale(1,1)"><path fill="none" stroke="#000000" d="M 92.5 380 L 198.5 380" stroke-miterlimit="10"></path></g><g transform="translate(-5,-10) scale(1,1)"><path fill="none" stroke="#000000" d="M 92.5 403 L 198.5 403" stroke-miterlimit="10"></path></g><g transform="translate(-5,-10) scale(1,1)"><g><path fill="none" stroke="none"></path><text fill="#000000" stroke="none" font-family="Arial" font-size="13px" font-style="normal" font-weight="bold" text-decoration="none" x="112.5" y="374.5">Component</text></g></g><g transform="translate(-5,-10) scale(1,1)"><g><path fill="none" stroke="none"></path><text fill="#000000" stroke="none" font-family="Arial" font-size="13px" font-style="normal" font-weight="normal" text-decoration="none" x="97.5" y="397.5">+gameObject</text></g></g><g transform="translate(-5,-10) scale(1,1)"><g><path fill="none" stroke="none"></path><text fill="#000000" stroke="none" font-family="Arial" font-size="13px" font-style="normal" font-weight="normal" text-decoration="none" x="97.5" y="420.5">+sendMessage()</text></g></g><g transform="translate(-5,-10) scale(1,1)"><path fill="none" stroke="#000000" d="M 115 354 Q 104 340 104 325" stroke-miterlimit="10"></path></g><g transform="translate(-5,-10) scale(1,1)"><path fill="#000000" stroke="none" d="M 108.20951775601598 335.16267485762415 L 104 325 L 99.79048224398402 335.16267485762415 L 104 347"></path></g><g transform="translate(-5,-10) scale(1,1)"><path fill="none" stroke="#000000" d="M 108.20951775601598 335.16267485762415 L 104 325 L 99.79048224398402 335.16267485762415 L 104 347 L 108.20951775601598 335.16267485762415" stroke-miterlimit="10"></path></g><g transform="translate(-5,-10) scale(1,1)"><g><path fill="none" stroke="none"></path><text fill="#000000" stroke="none" font-family="Arial" font-size="13px" font-style="normal" font-weight="normal" text-decoration="none" x="15" y="341">+components</text></g></g><g transform="translate(-5,-10) scale(1,1)"><rect fill="#C0C0C0" stroke="none" x="41.5" y="144" width="98" height="57" opacity="0.2"></rect></g><g transform="translate(-5,-10) scale(1,1)"><rect fill="#ffffff" stroke="none" x="34.5" y="137" width="98" height="57"></rect></g><g transform="translate(-5,-10) scale(1,1)"><path fill="none" stroke="#000000" d="M 34.5 137 L 132.5 137 L 132.5 194 L 34.5 194 L 34.5 137 Z Z" stroke-miterlimit="10"></path></g><g transform="translate(-5,-10) scale(1,1)"><path fill="none" stroke="#000000" d="M 34.5 162 L 132.5 162" stroke-miterlimit="10"></path></g><g transform="translate(-5,-10) scale(1,1)"><path fill="none" stroke="#000000" d="M 34.5 172 L 132.5 172" stroke-miterlimit="10"></path></g><g transform="translate(-5,-10) scale(1,1)"><g><path fill="none" stroke="none"></path><text fill="#000000" stroke="none" font-family="Arial" font-size="13px" font-style="normal" font-weight="bold" text-decoration="none" x="66.5" y="156.5">World</text></g></g><g transform="translate(-5,-10) scale(1,1)"><g><path fill="none" stroke="none"></path><text fill="#000000" stroke="none" font-family="Arial" font-size="13px" font-style="normal" font-weight="normal" text-decoration="none" x="39.5" y="189.5">+gameLoop()</text></g></g><g transform="translate(-5,-10) scale(1,1)"><path fill="none" stroke="#000000" d="M 89 238 Q 84 224 84 195" stroke-miterlimit="10"></path></g><g transform="translate(-5,-10) scale(1,1)"><path fill="#000000" stroke="none" d="M 88.20951775601598 205.16267485762415 L 84 195 L 79.79048224398402 205.16267485762415 L 84 217"></path></g><g transform="translate(-5,-10) scale(1,1)"><path fill="none" stroke="#000000" d="M 88.20951775601598 205.16267485762415 L 84 195 L 79.79048224398402 205.16267485762415 L 84 217 L 88.20951775601598 205.16267485762415" stroke-miterlimit="10"></path></g><g transform="translate(-5,-10) scale(1,1)"><g><path fill="none" stroke="none"></path><text fill="#000000" stroke="none" font-family="Arial" font-size="13px" font-style="normal" font-weight="normal" text-decoration="none" x="17" y="224">+objects</text></g></g><g transform="translate(-5,-10) scale(1,1)"><rect fill="#C0C0C0" stroke="none" x="56.75" y="463" width="76" height="87" opacity="0.2"></rect></g><g transform="translate(-5,-10) scale(1,1)"><rect fill="#ffffff" stroke="none" x="49.75" y="456" width="76" height="87"></rect></g><g transform="translate(-5,-10) scale(1,1)"><path fill="none" stroke="#000000" d="M 49.75 456 L 125.75 456 L 125.75 543 L 49.75 543 L 49.75 456 Z Z" stroke-miterlimit="10"></path></g><g transform="translate(-5,-10) scale(1,1)"><path fill="none" stroke="#000000" d="M 49.75 481 L 125.75 481" stroke-miterlimit="10"></path></g><g transform="translate(-5,-10) scale(1,1)"><path fill="none" stroke="#000000" d="M 49.75 534 L 125.75 534" stroke-miterlimit="10"></path></g><g transform="translate(-5,-10) scale(1,1)"><g><path fill="none" stroke="none"></path><text fill="#000000" stroke="none" font-family="Arial" font-size="13px" font-style="normal" font-weight="bold" text-decoration="none" x="59.25" y="475.5">Transform</text></g></g><g transform="translate(-5,-10) scale(1,1)"><g><path fill="none" stroke="none"></path><text fill="#000000" stroke="none" font-family="Arial" font-size="13px" font-style="normal" font-weight="normal" text-decoration="none" x="54.75" y="498.5">+Position</text></g></g><g transform="translate(-5,-10) scale(1,1)"><g><path fill="none" stroke="none"></path><text fill="#000000" stroke="none" font-family="Arial" font-size="13px" font-style="normal" font-weight="normal" text-decoration="none" x="54.75" y="513.5">+Rotation</text></g></g><g transform="translate(-5,-10) scale(1,1)"><g><path fill="none" stroke="none"></path><text fill="#000000" stroke="none" font-family="Arial" font-size="13px" font-style="normal" font-weight="normal" text-decoration="none" x="54.75" y="528.5">+Scale</text></g></g><g transform="translate(-5,-10) scale(1,1)"><path fill="none" stroke="#000000" d="M 88 455 Q 88 441 105 426" stroke-miterlimit="10"></path></g><g transform="translate(-5,-10) scale(1,1)"><path fill="#FFFFFF" stroke="none" d="M 95.32949941813561 445.7606026855499 L 105 426 L 84.18906730180981 433.13477962038064"></path></g><g transform="translate(-5,-10) scale(1,1)"><path fill="none" stroke="#000000" d="M 95.32949941813561 445.7606026855499 L 105 426 L 84.18906730180981 433.13477962038064 L 95.32949941813561 445.7606026855499" stroke-miterlimit="10"></path></g><g transform="translate(-5,-10) scale(1,1)"><rect fill="#C0C0C0" stroke="none" x="170.5" y="130" width="88" height="100" opacity="0.2"></rect></g><g transform="translate(-5,-10) scale(1,1)"><rect fill="#ffffff" stroke="none" x="163.5" y="123" width="88" height="100"></rect></g><g transform="translate(-5,-10) scale(1,1)"><path fill="none" stroke="#000000" d="M 163.5 123 L 251.5 123 L 251.5 223 L 163.5 223 L 163.5 123 Z Z" stroke-miterlimit="10"></path></g><g transform="translate(-5,-10) scale(1,1)"><path fill="none" stroke="#000000" d="M 163.5 148 L 251.5 148" stroke-miterlimit="10"></path></g><g transform="translate(-5,-10) scale(1,1)"><path fill="none" stroke="#000000" d="M 163.5 186 L 251.5 186" stroke-miterlimit="10"></path></g><g transform="translate(-5,-10) scale(1,1)"><g><path fill="none" stroke="none"></path><text fill="#000000" stroke="none" font-family="Arial" font-size="13px" font-style="normal" font-weight="bold" text-decoration="none" x="188.5" y="142.5">Object</text></g></g><g transform="translate(-5,-10) scale(1,1)"><g><path fill="none" stroke="none"></path><text fill="#000000" stroke="none" font-family="Arial" font-size="13px" font-style="normal" font-weight="normal" text-decoration="none" x="168.5" y="165.5">+Id</text></g></g><g transform="translate(-5,-10) scale(1,1)"><g><path fill="none" stroke="none"></path><text fill="#000000" stroke="none" font-family="Arial" font-size="13px" font-style="normal" font-weight="normal" text-decoration="none" x="168.5" y="180.5">+Name</text></g></g><g transform="translate(-5,-10) scale(1,1)"><g><path fill="none" stroke="none"></path><text fill="#000000" stroke="none" font-family="Arial" font-size="13px" font-style="normal" font-weight="normal" text-decoration="none" x="168.5" y="203.5">+toString()</text></g></g><g transform="translate(-5,-10) scale(1,1)"><g><path fill="none" stroke="none"></path><text fill="#000000" stroke="none" font-family="Arial" font-size="13px" font-style="normal" font-weight="normal" text-decoration="none" x="168.5" y="218.5">+clone()</text><path fill="none" stroke="#000000" d="M 168.5 218.5 L 215.5 218.5" stroke-miterlimit="10"></path></g></g><g transform="translate(-5,-10) scale(1,1)"><path fill="none" stroke="#000000" d="M 151 238 Q 166 224 166 224" stroke-miterlimit="10"></path></g><g transform="translate(-5,-10) scale(1,1)"><path fill="#FFFFFF" stroke="none" d="M NaN NaN L 166 224 L NaN NaN"></path></g><g transform="translate(-5,-10) scale(1,1)"><path fill="none" stroke="#000000" d="M NaN NaN L 166 224 L NaN NaN L NaN NaN" stroke-miterlimit="10"></path></g><g transform="translate(-5,-10) scale(1,1)"><path fill="none" stroke="#000000" d="M 200 355 Q 223 340 223 282 Q 223 224 223 224" stroke-miterlimit="10"></path></g><g transform="translate(-5,-10) scale(1,1)"><path fill="#FFFFFF" stroke="none" d="M NaN NaN L 223 224 L NaN NaN"></path></g><g transform="translate(-5,-10) scale(1,1)"><path fill="none" stroke="#000000" d="M NaN NaN L 223 224 L NaN NaN L NaN NaN" stroke-miterlimit="10"></path></g><g transform="translate(-5,-10) scale(1,1)"><rect fill="#C0C0C0" stroke="none" x="163.75" y="463" width="93" height="87" opacity="0.2"></rect></g><g transform="translate(-5,-10) scale(1,1)"><rect fill="#ffffff" stroke="none" x="156.75" y="456" width="93" height="87"></rect></g><g transform="translate(-5,-10) scale(1,1)"><path fill="none" stroke="#000000" d="M 156.75 456 L 249.75 456 L 249.75 543 L 156.75 543 L 156.75 456 Z Z" stroke-miterlimit="10"></path></g><g transform="translate(-5,-10) scale(1,1)"><path fill="none" stroke="#000000" d="M 156.75 481 L 249.75 481" stroke-miterlimit="10"></path></g><g transform="translate(-5,-10) scale(1,1)"><path fill="none" stroke="#000000" d="M 156.75 491 L 249.75 491" stroke-miterlimit="10"></path></g><g transform="translate(-5,-10) scale(1,1)"><g><path fill="none" stroke="none"></path><text fill="#000000" stroke="none" font-family="Arial" font-size="13px" font-style="normal" font-weight="bold" text-decoration="none" x="175.25" y="475.5">Behaviour</text></g></g><g transform="translate(-5,-10) scale(1,1)"><g><path fill="none" stroke="none"></path><text fill="#000000" stroke="none" font-family="Arial" font-size="13px" font-style="normal" font-weight="normal" text-decoration="none" x="161.75" y="508.5">+update()</text></g></g><g transform="translate(-5,-10) scale(1,1)"><g><path fill="none" stroke="none"></path><text fill="#000000" stroke="none" font-family="Arial" font-size="13px" font-style="normal" font-weight="normal" text-decoration="none" x="161.75" y="523.5">+fixedUpdate()</text></g></g><g transform="translate(-5,-10) scale(1,1)"><path fill="none" stroke="#000000" d="M 204 455 Q 204 441 187 426" stroke-miterlimit="10"></path></g><g transform="translate(-5,-10) scale(1,1)"><path fill="#FFFFFF" stroke="none" d="M 207.8109326981902 433.13477962038064 L 187 426 L 196.6705005818644 445.7606026855499"></path></g><g transform="translate(-5,-10) scale(1,1)"><path fill="none" stroke="#000000" d="M 207.8109326981902 433.13477962038064 L 187 426 L 196.6705005818644 445.7606026855499 L 207.8109326981902 433.13477962038064" stroke-miterlimit="10"></path></g><g transform="translate(-5,-10) scale(1,1)"><rect fill="#C0C0C0" stroke="none" x="27" y="27" width="127" height="72" opacity="0.2"></rect></g><g transform="translate(-5,-10) scale(1,1)"><rect fill="#ffffff" stroke="none" x="20" y="20" width="127" height="72"></rect></g><g transform="translate(-5,-10) scale(1,1)"><path fill="none" stroke="#000000" d="M 20 20 L 147 20 L 147 92 L 20 92 L 20 20 Z Z" stroke-miterlimit="10"></path></g><g transform="translate(-5,-10) scale(1,1)"><path fill="none" stroke="#000000" d="M 20 45 L 147 45" stroke-miterlimit="10"></path></g><g transform="translate(-5,-10) scale(1,1)"><path fill="none" stroke="#000000" d="M 20 55 L 147 55" stroke-miterlimit="10"></path></g><g transform="translate(-5,-10) scale(1,1)"><g><path fill="none" stroke="none"></path><text fill="#000000" stroke="none" font-family="Arial" font-size="13px" font-style="normal" font-weight="bold" text-decoration="none" x="69.5" y="39.5">Time</text></g></g><g transform="translate(-5,-10) scale(1,1)"><g><path fill="none" stroke="none"></path><text fill="#000000" stroke="none" font-family="Arial" font-size="13px" font-style="normal" font-weight="normal" text-decoration="none" x="25" y="72.5">+elapsedTime()</text><path fill="none" stroke="#000000" d="M 25 72.5 L 114 72.5" stroke-miterlimit="10"></path></g></g><g transform="translate(-5,-10) scale(1,1)"><g><path fill="none" stroke="none"></path><text fill="#000000" stroke="none" font-family="Arial" font-size="13px" font-style="normal" font-weight="normal" text-decoration="none" x="25" y="87.5">+fixedElapsedTime()</text><path fill="none" stroke="#000000" d="M 25 87.5 L 143 87.5" stroke-miterlimit="10"></path></g></g><g transform="translate(-5,-10) scale(1,1)"><path fill="none" stroke="#000000" d="M 84 136 Q 84 108 84 93" stroke-miterlimit="10" stroke-dasharray="3"></path></g><g transform="translate(-5,-10) scale(1,1)"><path fill="none" stroke="#000000" d="M 88.20951775601598 103.16267485762415 L 84 93 L 79.79048224398402 103.16267485762415" stroke-miterlimit="10"></path></g><g transform="translate(-5,-10) scale(1,1)"><rect fill="#C0C0C0" stroke="none" x="420.5" y="41" width="55" height="44" opacity="0.2"></rect></g><g transform="translate(-5,-10) scale(1,1)"><rect fill="#ffffff" stroke="none" x="413.5" y="34" width="55" height="44"></rect></g><g transform="translate(-5,-10) scale(1,1)"><path fill="none" stroke="#000000" d="M 413.5 34 L 468.5 34 L 468.5 78 L 413.5 78 L 413.5 34 Z Z" stroke-miterlimit="10"></path></g><g transform="translate(-5,-10) scale(1,1)"><path fill="none" stroke="#000000" d="M 413.5 59 L 468.5 59" stroke-miterlimit="10"></path></g><g transform="translate(-5,-10) scale(1,1)"><path fill="none" stroke="#000000" d="M 413.5 69 L 468.5 69" stroke-miterlimit="10"></path></g><g transform="translate(-5,-10) scale(1,1)"><g><path fill="none" stroke="none"></path><text fill="#000000" stroke="none" font-family="Arial" font-size="13px" font-style="normal" font-weight="bold" text-decoration="none" x="418.5" y="53.5">System</text></g></g><g transform="translate(-5,-10) scale(1,1)"><rect fill="#C0C0C0" stroke="none" x="289.5" y="150.5" width="103" height="44" opacity="0.2"></rect></g><g transform="translate(-5,-10) scale(1,1)"><rect fill="#ffffff" stroke="none" x="282.5" y="143.5" width="103" height="44"></rect></g><g transform="translate(-5,-10) scale(1,1)"><path fill="none" stroke="#000000" d="M 282.5 143.5 L 385.5 143.5 L 385.5 187.5 L 282.5 187.5 L 282.5 143.5 Z Z" stroke-miterlimit="10"></path></g><g transform="translate(-5,-10) scale(1,1)"><path fill="none" stroke="#000000" d="M 282.5 168.5 L 385.5 168.5" stroke-miterlimit="10"></path></g><g transform="translate(-5,-10) scale(1,1)"><path fill="none" stroke="#000000" d="M 282.5 178.5 L 385.5 178.5" stroke-miterlimit="10"></path></g><g transform="translate(-5,-10) scale(1,1)"><g><path fill="none" stroke="none"></path><text fill="#000000" stroke="none" font-family="Arial" font-size="13px" font-style="normal" font-weight="bold" text-decoration="none" x="291.5" y="163">GameManager</text></g></g><g transform="translate(-5,-10) scale(1,1)"><path fill="none" stroke="#000000" d="M 334 143 Q 335 108 413 70" stroke-miterlimit="10"></path></g><g transform="translate(-5,-10) scale(1,1)"><path fill="#FFFFFF" stroke="none" d="M 398.4149966531932 86.47050932344337 L 413 70 L 391.0404363976414 71.33325406204749"></path></g><g transform="translate(-5,-10) scale(1,1)"><path fill="none" stroke="#000000" d="M 398.4149966531932 86.47050932344337 L 413 70 L 391.0404363976414 71.33325406204749 L 398.4149966531932 86.47050932344337" stroke-miterlimit="10"></path></g><g transform="translate(-5,-10) scale(1,1)"><rect fill="#C0C0C0" stroke="none" x="423.5" y="150.5" width="49" height="44" opacity="0.2"></rect></g><g transform="translate(-5,-10) scale(1,1)"><rect fill="#ffffff" stroke="none" x="416.5" y="143.5" width="49" height="44"></rect></g><g transform="translate(-5,-10) scale(1,1)"><path fill="none" stroke="#000000" d="M 416.5 143.5 L 465.5 143.5 L 465.5 187.5 L 416.5 187.5 L 416.5 143.5 Z Z" stroke-miterlimit="10"></path></g><g transform="translate(-5,-10) scale(1,1)"><path fill="none" stroke="#000000" d="M 416.5 168.5 L 465.5 168.5" stroke-miterlimit="10"></path></g><g transform="translate(-5,-10) scale(1,1)"><path fill="none" stroke="#000000" d="M 416.5 178.5 L 465.5 178.5" stroke-miterlimit="10"></path></g><g transform="translate(-5,-10) scale(1,1)"><g><path fill="none" stroke="none"></path><text fill="#000000" stroke="none" font-family="Arial" font-size="13px" font-style="normal" font-weight="bold" text-decoration="none" x="427" y="163">Input</text></g></g><g transform="translate(-5,-10) scale(1,1)"><rect fill="#C0C0C0" stroke="none" x="503.5" y="150.5" width="68" height="44" opacity="0.2"></rect></g><g transform="translate(-5,-10) scale(1,1)"><rect fill="#ffffff" stroke="none" x="496.5" y="143.5" width="68" height="44"></rect></g><g transform="translate(-5,-10) scale(1,1)"><path fill="none" stroke="#000000" d="M 496.5 143.5 L 564.5 143.5 L 564.5 187.5 L 496.5 187.5 L 496.5 143.5 Z Z" stroke-miterlimit="10"></path></g><g transform="translate(-5,-10) scale(1,1)"><path fill="none" stroke="#000000" d="M 496.5 168.5 L 564.5 168.5" stroke-miterlimit="10"></path></g><g transform="translate(-5,-10) scale(1,1)"><path fill="none" stroke="#000000" d="M 496.5 178.5 L 564.5 178.5" stroke-miterlimit="10"></path></g><g transform="translate(-5,-10) scale(1,1)"><g><path fill="none" stroke="none"></path><text fill="#000000" stroke="none" font-family="Arial" font-size="13px" font-style="normal" font-weight="bold" text-decoration="none" x="504.5" y="163">Renderer</text></g></g><g transform="translate(-5,-10) scale(1,1)"><path fill="none" stroke="#000000" d="M 441 143 Q 442 108 441 79" stroke-miterlimit="10"></path></g><g transform="translate(-5,-10) scale(1,1)"><path fill="#FFFFFF" stroke="none" d="M 450.1144924079225 99.02313732025834 L 441 79 L 433.2864232089312 99.60341556849943"></path></g><g transform="translate(-5,-10) scale(1,1)"><path fill="none" stroke="#000000" d="M 450.1144924079225 99.02313732025834 L 441 79 L 433.2864232089312 99.60341556849943 L 450.1144924079225 99.02313732025834" stroke-miterlimit="10"></path></g><g transform="translate(-5,-10) scale(1,1)"><path fill="none" stroke="#000000" d="M 530 143 Q 531 108 470 72" stroke-miterlimit="10"></path></g><g transform="translate(-5,-10) scale(1,1)"><path fill="#FFFFFF" stroke="none" d="M 491.7833478340213 75.07989563817351 L 470 72 L 483.2253378792824 89.5809680614811"></path></g><g transform="translate(-5,-10) scale(1,1)"><path fill="none" stroke="#000000" d="M 491.7833478340213 75.07989563817351 L 470 72 L 483.2253378792824 89.5809680614811 L 491.7833478340213 75.07989563817351" stroke-miterlimit="10"></path></g><g transform="translate(-5,-10) scale(1,1)"><path fill="none" stroke="#000000" d="M 413 55 Q 256 48 126 136" stroke-miterlimit="10" stroke-dasharray="3"></path></g><g transform="translate(-5,-10) scale(1,1)"><path fill="none" stroke="#000000" d="M 132.05609304748592 126.81720429279879 L 126 136 L 136.7755215761867 133.7890873465613" stroke-miterlimit="10"></path></g><g transform="translate(-5,-10) scale(1,1)"><rect fill="#C0C0C0" stroke="none" x="607" y="151" width="49" height="44" opacity="0.2"></rect></g><g transform="translate(-5,-10) scale(1,1)"><rect fill="#ffffff" stroke="none" x="600" y="144" width="49" height="44"></rect></g><g transform="translate(-5,-10) scale(1,1)"><path fill="none" stroke="#000000" d="M 600 144 L 649 144 L 649 188 L 600 188 L 600 144 Z Z" stroke-miterlimit="10"></path></g><g transform="translate(-5,-10) scale(1,1)"><path fill="none" stroke="#000000" d="M 600 169 L 649 169" stroke-miterlimit="10"></path></g><g transform="translate(-5,-10) scale(1,1)"><path fill="none" stroke="#000000" d="M 600 179 L 649 179" stroke-miterlimit="10"></path></g><g transform="translate(-5,-10) scale(1,1)"><g><path fill="none" stroke="none"></path><text fill="#000000" stroke="none" font-family="Arial" font-size="13px" font-style="normal" font-weight="bold" text-decoration="none" x="608" y="163.5">Audio</text></g></g><g transform="translate(-5,-10) scale(1,1)"><path fill="none" stroke="#000000" d="M 610 143 Q 568 72 470 60" stroke-miterlimit="10"></path></g><g transform="translate(-5,-10) scale(1,1)"><path fill="#FFFFFF" stroke="none" d="M 491.19792507142375 54.11374714556843 L 470 60 L 489.1514058742353 70.82698725594084"></path></g><g transform="translate(-5,-10) scale(1,1)"><path fill="none" stroke="#000000" d="M 491.19792507142375 54.11374714556843 L 470 60 L 489.1514058742353 70.82698725594084 L 491.19792507142375 54.11374714556843" stroke-miterlimit="10"></path></g></g></svg>