<svg version="1.1" xmlns="http://www.w3.org/2000/svg" xmlns:xlink="http://www.w3.org/1999/xlink" width="2063" height="1388"><defs/><g><g transform="translate(-34,2) scale(1,1)"><path fill="#C0C0C0" stroke="none" d="M 684.5 512 C 684.5 489.0801808 703.0801808 470.5 726 470.5 C 748.9198192 470.5 767.5 489.0801808 767.5 512 C 767.5 534.9198192 748.9198192 553.5 726 553.5 C 703.0801808 553.5 684.5 534.9198192 684.5 512 Z" opacity="0.2"/></g><g transform="translate(-34,2) scale(1,1)"><path fill="#ffffff" stroke="none" d="M 677.5 505 C 677.5 482.0801808 696.0801808 463.5 719 463.5 C 741.9198192 463.5 760.5 482.0801808 760.5 505 C 760.5 527.9198192 741.9198192 546.5 719 546.5 C 696.0801808 546.5 677.5 527.9198192 677.5 505 Z"/></g><g transform="translate(-34,2) scale(1,1)"><path fill="none" stroke="#000000" d="M 677.5 505 C 677.5 482.0801808 696.0801808 463.5 719 463.5 C 741.9198192 463.5 760.5 482.0801808 760.5 505 C 760.5 527.9198192 741.9198192 546.5 719 546.5 C 696.0801808 546.5 677.5 527.9198192 677.5 505 Z" stroke-miterlimit="10"/></g><g transform="translate(-34,2) scale(1,1)"><path fill="none" stroke="#000000" d="M 608.5 571.5 L 829.5 571.5" stroke-miterlimit="10"/></g><g transform="translate(-34,2) scale(1,1)"><g><path fill="none" stroke="none"/><text fill="#000000" stroke="none" font-family="Arial" font-size="13px" font-style="normal" font-weight="bold" text-decoration="none" x="696.5" y="566">ISocket</text></g></g><g transform="translate(-34,2) scale(1,1)"><g><path fill="none" stroke="none"/><text fill="#000000" stroke="none" font-family="Arial" font-size="13px" font-style="normal" font-weight="normal" text-decoration="none" x="613.5" y="589">+send(buffer: Buffer const*): size_t</text></g></g><g transform="translate(-34,2) scale(1,1)"><g><path fill="none" stroke="none"/><text fill="#000000" stroke="none" font-family="Arial" font-size="13px" font-style="normal" font-weight="normal" text-decoration="none" x="613.5" y="604">+recv(): Buffer*</text></g></g><g transform="translate(-34,2) scale(1,1)"><g><path fill="none" stroke="none"/><text fill="#000000" stroke="none" font-family="Arial" font-size="13px" font-style="normal" font-weight="normal" text-decoration="none" x="613.5" y="619">+close(): void</text></g></g><g transform="translate(-34,2) scale(1,1)"><rect fill="#C0C0C0" stroke="none" x="807" y="1295" width="301" height="88" opacity="0.2"/></g><g transform="translate(-34,2) scale(1,1)"><rect fill="#ffffff" stroke="none" x="800" y="1288" width="301" height="88"/></g><g transform="translate(-34,2) scale(1,1)"><path fill="none" stroke="#000000" d="M 800 1288 L 1101 1288 L 1101 1376 L 800 1376 L 800 1288 Z Z" stroke-miterlimit="10"/></g><g transform="translate(-34,2) scale(1,1)"><path fill="none" stroke="#000000" d="M 800 1313 L 1101 1313" stroke-miterlimit="10"/></g><g transform="translate(-34,2) scale(1,1)"><path fill="none" stroke="#000000" d="M 800 1351 L 1101 1351" stroke-miterlimit="10"/></g><g transform="translate(-34,2) scale(1,1)"><g><path fill="none" stroke="none"/><text fill="#000000" stroke="none" font-family="Arial" font-size="13px" font-style="normal" font-weight="bold" text-decoration="none" x="910" y="1307.5">TcpConnector</text></g></g><g transform="translate(-34,2) scale(1,1)"><g><path fill="none" stroke="none"/><text fill="#000000" stroke="none" font-family="Arial" font-size="13px" font-style="normal" font-weight="normal" text-decoration="none" x="805" y="1330.5">-_port: short int</text></g></g><g transform="translate(-34,2) scale(1,1)"><g><path fill="none" stroke="none"/><text fill="#000000" stroke="none" font-family="Arial" font-size="13px" font-style="normal" font-weight="normal" text-decoration="none" x="805" y="1345.5">-_addr: string</text></g></g><g transform="translate(-34,2) scale(1,1)"><g><path fill="none" stroke="none"/><text fill="#000000" stroke="none" font-family="Arial" font-size="13px" font-style="normal" font-weight="normal" text-decoration="none" x="805" y="1368.5">+TcpConnector(addr: string const&amp;, port: short int)</text></g></g><g transform="translate(-34,2) scale(1,1)"><rect fill="#C0C0C0" stroke="none" x="99" y="1162.5" width="284" height="85" opacity="0.2"/></g><g transform="translate(-34,2) scale(1,1)"><rect fill="#ffffff" stroke="none" x="92" y="1155.5" width="284" height="85"/></g><g transform="translate(-34,2) scale(1,1)"><path fill="none" stroke="#000000" d="M 92 1155.5 L 376 1155.5 L 376 1240.5 L 92 1240.5 L 92 1155.5 Z Z" stroke-miterlimit="10"/></g><g transform="translate(-34,2) scale(1,1)"><path fill="none" stroke="#000000" d="M 92 1180.5 L 376 1180.5" stroke-miterlimit="10"/></g><g transform="translate(-34,2) scale(1,1)"><path fill="none" stroke="#000000" d="M 92 1203.5 L 376 1203.5" stroke-miterlimit="10"/></g><g transform="translate(-34,2) scale(1,1)"><g><path fill="none" stroke="none"/><text fill="#000000" stroke="none" font-family="Arial" font-size="13px" font-style="normal" font-weight="bold" text-decoration="none" x="202" y="1175">UdpSocket</text></g></g><g transform="translate(-34,2) scale(1,1)"><g><path fill="none" stroke="none"/><text fill="#000000" stroke="none" font-family="Arial" font-size="13px" font-style="normal" font-weight="normal" text-decoration="none" x="97" y="1198">-_port: short int</text></g></g><g transform="translate(-34,2) scale(1,1)"><g><path fill="none" stroke="none"/><text fill="#000000" stroke="none" font-family="Arial" font-size="13px" font-style="normal" font-weight="normal" text-decoration="none" x="97" y="1221">+UdpSocket(port: short int)</text></g></g><g transform="translate(-34,2) scale(1,1)"><path fill="#C0C0C0" stroke="none" d="M 212.25 775 C 212.25 759.121812 225.121812 746.25 241 746.25 C 256.878188 746.25 269.75 759.121812 269.75 775 C 269.75 790.878188 256.878188 803.75 241 803.75 C 225.121812 803.75 212.25 790.878188 212.25 775 Z" opacity="0.2"/></g><g transform="translate(-34,2) scale(1,1)"><path fill="#ffffff" stroke="none" d="M 205.25 768 C 205.25 752.121812 218.121812 739.25 234 739.25 C 249.878188 739.25 262.75 752.121812 262.75 768 C 262.75 783.878188 249.878188 796.75 234 796.75 C 218.121812 796.75 205.25 783.878188 205.25 768 Z"/></g><g transform="translate(-34,2) scale(1,1)"><path fill="none" stroke="#000000" d="M 205.25 768 C 205.25 752.121812 218.121812 739.25 234 739.25 C 249.878188 739.25 262.75 752.121812 262.75 768 C 262.75 783.878188 249.878188 796.75 234 796.75 C 218.121812 796.75 205.25 783.878188 205.25 768 Z" stroke-miterlimit="10"/></g><g transform="translate(-34,2) scale(1,1)"><path fill="none" stroke="#000000" d="M 44 821.75 L 424 821.75" stroke-miterlimit="10"/></g><g transform="translate(-34,2) scale(1,1)"><g><path fill="none" stroke="none"/><text fill="#000000" stroke="none" font-family="Arial" font-size="13px" font-style="normal" font-weight="bold" text-decoration="none" x="200" y="816.25">IUdpSocket</text></g></g><g transform="translate(-34,2) scale(1,1)"><g><path fill="none" stroke="none"/><text fill="#000000" stroke="none" font-family="Arial" font-size="13px" font-style="normal" font-weight="normal" text-decoration="none" x="49" y="839.25">+bind(): bool</text></g></g><g transform="translate(-34,2) scale(1,1)"><g><path fill="none" stroke="none"/><text fill="#000000" stroke="none" font-family="Arial" font-size="13px" font-style="normal" font-weight="normal" text-decoration="none" x="49" y="854.25">+recvFrom(addr: string&amp;): Buffer*</text></g></g><g transform="translate(-34,2) scale(1,1)"><g><path fill="none" stroke="none"/><text fill="#000000" stroke="none" font-family="Arial" font-size="13px" font-style="normal" font-weight="normal" text-decoration="none" x="49" y="869.25">+sendTo(add: string const&amp;, buffer: Buffer const&amp;): size_t</text></g></g><g transform="translate(-34,2) scale(1,1)"><path fill="#C0C0C0" stroke="none" d="M 924.5 1087 C 924.5 1069.3268864 938.8268864 1055 956.5 1055 C 974.1731136 1055 988.5 1069.3268864 988.5 1087 C 988.5 1104.6731136 974.1731136 1119 956.5 1119 C 938.8268864 1119 924.5 1104.6731136 924.5 1087 Z" opacity="0.2"/></g><g transform="translate(-34,2) scale(1,1)"><path fill="#ffffff" stroke="none" d="M 917.5 1080 C 917.5 1062.3268864 931.8268864 1048 949.5 1048 C 967.1731136 1048 981.5 1062.3268864 981.5 1080 C 981.5 1097.6731136 967.1731136 1112 949.5 1112 C 931.8268864 1112 917.5 1097.6731136 917.5 1080 Z"/></g><g transform="translate(-34,2) scale(1,1)"><path fill="none" stroke="#000000" d="M 917.5 1080 C 917.5 1062.3268864 931.8268864 1048 949.5 1048 C 967.1731136 1048 981.5 1062.3268864 981.5 1080 C 981.5 1097.6731136 967.1731136 1112 949.5 1112 C 931.8268864 1112 917.5 1097.6731136 917.5 1080 Z" stroke-miterlimit="10"/></g><g transform="translate(-34,2) scale(1,1)"><path fill="none" stroke="#000000" d="M 877.5 1137 L 1021.5 1137" stroke-miterlimit="10"/></g><g transform="translate(-34,2) scale(1,1)"><g><path fill="none" stroke="none"/><text fill="#000000" stroke="none" font-family="Arial" font-size="13px" font-style="normal" font-weight="bold" text-decoration="none" x="907" y="1131.5">ITcpConnector</text></g></g><g transform="translate(-34,2) scale(1,1)"><g><path fill="none" stroke="none"/><text fill="#000000" stroke="none" font-family="Arial" font-size="13px" font-style="normal" font-weight="normal" text-decoration="none" x="882.5" y="1154.5">+connect(): bool</text></g></g><g transform="translate(-34,2) scale(1,1)"><path fill="none" stroke="#000000" d="M 262 738 Q 328 576 608 553" stroke-miterlimit="10"/></g><g transform="translate(-34,2) scale(1,1)"><path fill="none" stroke="#000000" d="M 235 1155 Q 235 1123 234 876" stroke-miterlimit="10"/></g><g transform="translate(-34,2) scale(1,1)"><path fill="none" stroke="#000000" d="M 950 1287 L 949 1161" stroke-miterlimit="10"/></g><g transform="translate(-34,2) scale(1,1)"><path fill="#C0C0C0" stroke="none" d="M 1205 585.5 C 1205 570.8644528 1216.8644528 559 1231.5 559 C 1246.1355472 559 1258 570.8644528 1258 585.5 C 1258 600.1355472 1246.1355472 612 1231.5 612 C 1216.8644528 612 1205 600.1355472 1205 585.5 Z" opacity="0.2"/></g><g transform="translate(-34,2) scale(1,1)"><path fill="#ffffff" stroke="none" d="M 1198 578.5 C 1198 563.8644528 1209.8644528 552 1224.5 552 C 1239.1355472 552 1251 563.8644528 1251 578.5 C 1251 593.1355472 1239.1355472 605 1224.5 605 C 1209.8644528 605 1198 593.1355472 1198 578.5 Z"/></g><g transform="translate(-34,2) scale(1,1)"><path fill="none" stroke="#000000" d="M 1198 578.5 C 1198 563.8644528 1209.8644528 552 1224.5 552 C 1239.1355472 552 1251 563.8644528 1251 578.5 C 1251 593.1355472 1239.1355472 605 1224.5 605 C 1209.8644528 605 1198 593.1355472 1198 578.5 Z" stroke-miterlimit="10"/></g><g transform="translate(-34,2) scale(1,1)"><path fill="none" stroke="#000000" d="M 1112 630 L 1337 630" stroke-miterlimit="10"/></g><g transform="translate(-34,2) scale(1,1)"><g><path fill="none" stroke="none"/><text fill="#000000" stroke="none" font-family="Arial" font-size="13px" font-style="normal" font-weight="bold" text-decoration="none" x="1185.5" y="624.5">ITcpAcceptor</text></g></g><g transform="translate(-34,2) scale(1,1)"><g><path fill="none" stroke="none"/><text fill="#000000" stroke="none" font-family="Arial" font-size="13px" font-style="normal" font-weight="normal" text-decoration="none" x="1117" y="647.5">+accept(): ITcpSocket const*</text></g></g><g transform="translate(-34,2) scale(1,1)"><rect fill="#C0C0C0" stroke="none" x="1095" y="819.5" width="275" height="85" opacity="0.2"/></g><g transform="translate(-34,2) scale(1,1)"><rect fill="#ffffff" stroke="none" x="1088" y="812.5" width="275" height="85"/></g><g transform="translate(-34,2) scale(1,1)"><path fill="none" stroke="#000000" d="M 1088 812.5 L 1363 812.5 L 1363 897.5 L 1088 897.5 L 1088 812.5 Z Z" stroke-miterlimit="10"/></g><g transform="translate(-34,2) scale(1,1)"><path fill="none" stroke="#000000" d="M 1088 837.5 L 1363 837.5" stroke-miterlimit="10"/></g><g transform="translate(-34,2) scale(1,1)"><path fill="none" stroke="#000000" d="M 1088 875.5 L 1363 875.5" stroke-miterlimit="10"/></g><g transform="translate(-34,2) scale(1,1)"><g><path fill="none" stroke="none"/><text fill="#000000" stroke="none" font-family="Arial" font-size="13px" font-style="normal" font-weight="bold" text-decoration="none" x="1188.5" y="832">TcpAcceptor</text></g></g><g transform="translate(-34,2) scale(1,1)"><g><path fill="none" stroke="none"/><text fill="#000000" stroke="none" font-family="Arial" font-size="13px" font-style="normal" font-weight="normal" text-decoration="none" x="1093" y="855">-_port: short int</text></g></g><g transform="translate(-34,2) scale(1,1)"><g><path fill="none" stroke="none"/><text fill="#000000" stroke="none" font-family="Arial" font-size="13px" font-style="normal" font-weight="normal" text-decoration="none" x="1093" y="870">-_udpSock: rSocket</text></g></g><g transform="translate(-34,2) scale(1,1)"><g><path fill="none" stroke="none"/><text fill="#000000" stroke="none" font-family="Arial" font-size="13px" font-style="normal" font-weight="normal" text-decoration="none" x="1093" y="893">+TcpAcceptor(port: short int)</text></g></g><g transform="translate(-34,2) scale(1,1)"><rect fill="#C0C0C0" stroke="none" x="1783" y="239" width="311" height="340" opacity="0.2"/></g><g transform="translate(-34,2) scale(1,1)"><rect fill="#ffffff" stroke="none" x="1776" y="232" width="311" height="340"/></g><g transform="translate(-34,2) scale(1,1)"><path fill="none" stroke="#000000" d="M 1776 232 L 2087 232 L 2087 572 L 1776 572 L 1776 232 Z Z" stroke-miterlimit="10"/></g><g transform="translate(-34,2) scale(1,1)"><path fill="none" stroke="#000000" d="M 1776 257 L 2087 257" stroke-miterlimit="10"/></g><g transform="translate(-34,2) scale(1,1)"><path fill="none" stroke="#000000" d="M 1776 280 L 2087 280" stroke-miterlimit="10"/></g><g transform="translate(-34,2) scale(1,1)"><g><path fill="none" stroke="none"/><text fill="#000000" stroke="none" font-family="Arial" font-size="13px" font-style="normal" font-weight="bold" text-decoration="none" x="1914" y="251.5">Buffer</text></g></g><g transform="translate(-34,2) scale(1,1)"><g><path fill="none" stroke="none"/><text fill="#000000" stroke="none" font-family="Arial" font-size="13px" font-style="normal" font-weight="normal" text-decoration="none" x="1781" y="274.5">-buffer: vector&lt;uint8_t&gt;</text></g></g><g transform="translate(-34,2) scale(1,1)"><g><path fill="none" stroke="none"/><text fill="#000000" stroke="none" font-family="Arial" font-size="13px" font-style="normal" font-weight="normal" text-decoration="none" x="1781" y="297.5">+Buffer()</text></g></g><g transform="translate(-34,2) scale(1,1)"><g><path fill="none" stroke="none"/><text fill="#000000" stroke="none" font-family="Arial" font-size="13px" font-style="normal" font-weight="normal" text-decoration="none" x="1781" y="312.5">+Buffer(Buffer const&amp; buffer)</text></g></g><g transform="translate(-34,2) scale(1,1)"><g><path fill="none" stroke="none"/><text fill="#000000" stroke="none" font-family="Arial" font-size="13px" font-style="normal" font-weight="normal" text-decoration="none" x="1781" y="327.5">+append(data: T const&amp;): void</text></g></g><g transform="translate(-34,2) scale(1,1)"><g><path fill="none" stroke="none"/><text fill="#000000" stroke="none" font-family="Arial" font-size="13px" font-style="normal" font-weight="normal" text-decoration="none" x="1781" y="342.5">+append(data: T const*, size: size_t): void</text></g></g><g transform="translate(-34,2) scale(1,1)"><g><path fill="none" stroke="none"/><text fill="#000000" stroke="none" font-family="Arial" font-size="13px" font-style="normal" font-weight="normal" text-decoration="none" x="1781" y="357.5">+append(buffer: Buffer const&amp;): void</text></g></g><g transform="translate(-34,2) scale(1,1)"><g><path fill="none" stroke="none"/><text fill="#000000" stroke="none" font-family="Arial" font-size="13px" font-style="normal" font-weight="normal" text-decoration="none" x="1781" y="372.5">+append(buffer: string const&amp;): void</text></g></g><g transform="translate(-34,2) scale(1,1)"><g><path fill="none" stroke="none"/><text fill="#000000" stroke="none" font-family="Arial" font-size="13px" font-style="normal" font-weight="normal" text-decoration="none" x="1781" y="387.5">+setData(data: T const&amp;): void</text></g></g><g transform="translate(-34,2) scale(1,1)"><g><path fill="none" stroke="none"/><text fill="#000000" stroke="none" font-family="Arial" font-size="13px" font-style="normal" font-weight="normal" text-decoration="none" x="1781" y="402.5">+setData(data: T const*, size: size_t): void</text></g></g><g transform="translate(-34,2) scale(1,1)"><g><path fill="none" stroke="none"/><text fill="#000000" stroke="none" font-family="Arial" font-size="13px" font-style="normal" font-weight="normal" text-decoration="none" x="1781" y="417.5">+setData(buffer: string const&amp;): void</text></g></g><g transform="translate(-34,2) scale(1,1)"><g><path fill="none" stroke="none"/><text fill="#000000" stroke="none" font-family="Arial" font-size="13px" font-style="normal" font-weight="normal" text-decoration="none" x="1781" y="432.5">+setData(buffer: Buffer const&amp;): void</text></g></g><g transform="translate(-34,2) scale(1,1)"><g><path fill="none" stroke="none"/><text fill="#000000" stroke="none" font-family="Arial" font-size="13px" font-style="normal" font-weight="normal" text-decoration="none" x="1781" y="447.5">+consume(size: size_t): void</text></g></g><g transform="translate(-34,2) scale(1,1)"><g><path fill="none" stroke="none"/><text fill="#000000" stroke="none" font-family="Arial" font-size="13px" font-style="normal" font-weight="normal" text-decoration="none" x="1781" y="462.5">+empty(): bool</text></g></g><g transform="translate(-34,2) scale(1,1)"><g><path fill="none" stroke="none"/><text fill="#000000" stroke="none" font-family="Arial" font-size="13px" font-style="normal" font-weight="normal" text-decoration="none" x="1781" y="477.5">+data(): uint8_t const*</text></g></g><g transform="translate(-34,2) scale(1,1)"><g><path fill="none" stroke="none"/><text fill="#000000" stroke="none" font-family="Arial" font-size="13px" font-style="normal" font-weight="normal" text-decoration="none" x="1781" y="492.5">+data(): uint8_t</text></g></g><g transform="translate(-34,2) scale(1,1)"><g><path fill="none" stroke="none"/><text fill="#000000" stroke="none" font-family="Arial" font-size="13px" font-style="normal" font-weight="normal" text-decoration="none" x="1781" y="507.5">+operator[](size_t index): uint_8&amp;</text></g></g><g transform="translate(-34,2) scale(1,1)"><g><path fill="none" stroke="none"/><text fill="#000000" stroke="none" font-family="Arial" font-size="13px" font-style="normal" font-weight="normal" text-decoration="none" x="1781" y="522.5">+size(): size_t</text></g></g><g transform="translate(-34,2) scale(1,1)"><g><path fill="none" stroke="none"/><text fill="#000000" stroke="none" font-family="Arial" font-size="13px" font-style="normal" font-weight="normal" text-decoration="none" x="1781" y="537.5">+clear(): void</text></g></g><g transform="translate(-34,2) scale(1,1)"><g><path fill="none" stroke="none"/><text fill="#000000" stroke="none" font-family="Arial" font-size="13px" font-style="normal" font-weight="normal" text-decoration="none" x="1781" y="552.5">+getString(len : size_t = 0, offset: size_t = 0): string</text></g></g><g transform="translate(-34,2) scale(1,1)"><g><path fill="none" stroke="none"/><text fill="#000000" stroke="none" font-family="Arial" font-size="13px" font-style="normal" font-weight="normal" text-decoration="none" x="1781" y="567.5">+get(): T</text></g></g><g transform="translate(-34,2) scale(1,1)"><rect fill="#C0C0C0" stroke="none" x="474" y="1131" width="283" height="92" opacity="0.2"/></g><g transform="translate(-34,2) scale(1,1)"><rect fill="#ffffff" stroke="none" x="467" y="1124" width="283" height="92"/></g><g transform="translate(-34,2) scale(1,1)"><path fill="none" stroke="#000000" d="M 467 1124 L 750 1124 L 750 1216 L 467 1216 L 467 1124 Z Z" stroke-miterlimit="10"/></g><g transform="translate(-34,2) scale(1,1)"><path fill="none" stroke="#000000" d="M 467 1149 L 750 1149" stroke-miterlimit="10"/></g><g transform="translate(-34,2) scale(1,1)"><path fill="none" stroke="#000000" d="M 467 1187 L 750 1187" stroke-miterlimit="10"/></g><g transform="translate(-34,2) scale(1,1)"><g><path fill="none" stroke="none"/><text fill="#000000" stroke="none" font-family="Arial" font-size="13px" font-style="normal" font-weight="bold" text-decoration="none" x="577" y="1143.5">TcpSocket</text></g></g><g transform="translate(-34,2) scale(1,1)"><g><path fill="none" stroke="none"/><text fill="#000000" stroke="none" font-family="Arial" font-size="13px" font-style="normal" font-weight="normal" text-decoration="none" x="472" y="1166.5">-_port: short int</text></g></g><g transform="translate(-34,2) scale(1,1)"><g><path fill="none" stroke="none"/><text fill="#000000" stroke="none" font-family="Arial" font-size="13px" font-style="normal" font-weight="normal" text-decoration="none" x="472" y="1181.5">-_addr: string</text></g></g><g transform="translate(-34,2) scale(1,1)"><g><path fill="none" stroke="none"/><text fill="#000000" stroke="none" font-family="Arial" font-size="13px" font-style="normal" font-weight="normal" text-decoration="none" x="472" y="1204.5">+TcpSocket(addr: string const&amp;, port: short int)</text></g></g><g transform="translate(-34,2) scale(1,1)"><path fill="#C0C0C0" stroke="none" d="M 575 772.5 C 575 750.1324656 593.1324656 732 615.5 732 C 637.8675344 732 656 750.1324656 656 772.5 C 656 794.8675344 637.8675344 813 615.5 813 C 593.1324656 813 575 794.8675344 575 772.5 Z" opacity="0.2"/></g><g transform="translate(-34,2) scale(1,1)"><path fill="#ffffff" stroke="none" d="M 568 765.5 C 568 743.1324656 586.1324656 725 608.5 725 C 630.8675344 725 649 743.1324656 649 765.5 C 649 787.8675344 630.8675344 806 608.5 806 C 586.1324656 806 568 787.8675344 568 765.5 Z"/></g><g transform="translate(-34,2) scale(1,1)"><path fill="none" stroke="#000000" d="M 568 765.5 C 568 743.1324656 586.1324656 725 608.5 725 C 630.8675344 725 649 743.1324656 649 765.5 C 649 787.8675344 630.8675344 806 608.5 806 C 586.1324656 806 568 787.8675344 568 765.5 Z" stroke-miterlimit="10"/></g><g transform="translate(-34,2) scale(1,1)"><path fill="none" stroke="#000000" d="M 496 831 L 721 831" stroke-miterlimit="10"/></g><g transform="translate(-34,2) scale(1,1)"><g><path fill="none" stroke="none"/><text fill="#000000" stroke="none" font-family="Arial" font-size="13px" font-style="normal" font-weight="bold" text-decoration="none" x="575" y="825.5">ITcpSocket</text></g></g><g transform="translate(-34,2) scale(1,1)"><path fill="none" stroke="#000000" d="M 609 1123 Q 609 1099 608 842" stroke-miterlimit="10"/></g><g transform="translate(-34,2) scale(1,1)"><path fill="none" stroke="#000000" d="M 641 724 Q 680 656 691 626" stroke-miterlimit="10"/></g><g transform="translate(-34,2) scale(1,1)"><path fill="#C0C0C0" stroke="none" d="M 1573.25 281.5 C 1573.25 269.073592 1583.323592 259 1595.75 259 C 1608.176408 259 1618.25 269.073592 1618.25 281.5 C 1618.25 293.926408 1608.176408 304 1595.75 304 C 1583.323592 304 1573.25 293.926408 1573.25 281.5 Z" opacity="0.2"/></g><g transform="translate(-34,2) scale(1,1)"><path fill="#ffffff" stroke="none" d="M 1566.25 274.5 C 1566.25 262.073592 1576.323592 252 1588.75 252 C 1601.176408 252 1611.25 262.073592 1611.25 274.5 C 1611.25 286.926408 1601.176408 297 1588.75 297 C 1576.323592 297 1566.25 286.926408 1566.25 274.5 Z"/></g><g transform="translate(-34,2) scale(1,1)"><path fill="none" stroke="#000000" d="M 1566.25 274.5 C 1566.25 262.073592 1576.323592 252 1588.75 252 C 1601.176408 252 1611.25 262.073592 1611.25 274.5 C 1611.25 286.926408 1601.176408 297 1588.75 297 C 1576.323592 297 1566.25 286.926408 1566.25 274.5 Z" stroke-miterlimit="10"/></g><g transform="translate(-34,2) scale(1,1)"><path fill="none" stroke="#000000" d="M 1428.75 322 L 1748.75 322" stroke-miterlimit="10"/></g><g transform="translate(-34,2) scale(1,1)"><g><path fill="none" stroke="none"/><text fill="#000000" stroke="none" font-family="Arial" font-size="13px" font-style="normal" font-weight="bold" text-decoration="none" x="1544.75" y="316.5">ISocketMonitor</text></g></g><g transform="translate(-34,2) scale(1,1)"><g><path fill="none" stroke="none"/><text fill="#000000" stroke="none" font-family="Arial" font-size="13px" font-style="normal" font-weight="normal" text-decoration="none" x="1433.75" y="339.5">+registerSocket(socket: IMonitorable const *): void</text></g></g><g transform="translate(-34,2) scale(1,1)"><g><path fill="none" stroke="none"/><text fill="#000000" stroke="none" font-family="Arial" font-size="13px" font-style="normal" font-weight="normal" text-decoration="none" x="1433.75" y="354.5">+isReadable(socket: IMonitorable const *): bool</text></g></g><g transform="translate(-34,2) scale(1,1)"><g><path fill="none" stroke="none"/><text fill="#000000" stroke="none" font-family="Arial" font-size="13px" font-style="normal" font-weight="normal" text-decoration="none" x="1433.75" y="369.5">+isWritable(socket: IMonitorable const *): bool</text></g></g><g transform="translate(-34,2) scale(1,1)"><g><path fill="none" stroke="none"/><text fill="#000000" stroke="none" font-family="Arial" font-size="13px" font-style="normal" font-weight="normal" text-decoration="none" x="1433.75" y="384.5">+deleteSocket(socket: IMonitorable const *): void</text></g></g><g transform="translate(-34,2) scale(1,1)"><g><path fill="none" stroke="none"/><text fill="#000000" stroke="none" font-family="Arial" font-size="13px" font-style="normal" font-weight="normal" text-decoration="none" x="1433.75" y="399.5">+update(): int</text></g></g><g transform="translate(-34,2) scale(1,1)"><g><path fill="none" stroke="none"/><text fill="#000000" stroke="none" font-family="Arial" font-size="13px" font-style="normal" font-weight="normal" text-decoration="none" x="1433.75" y="414.5">+clearFds(): void</text></g></g><g transform="translate(-34,2) scale(1,1)"><rect fill="#C0C0C0" stroke="none" x="1511" y="519" width="165" height="100" opacity="0.2"/></g><g transform="translate(-34,2) scale(1,1)"><rect fill="#ffffff" stroke="none" x="1504" y="512" width="165" height="100"/></g><g transform="translate(-34,2) scale(1,1)"><path fill="none" stroke="#000000" d="M 1504 512 L 1669 512 L 1669 612 L 1504 612 L 1504 512 Z Z" stroke-miterlimit="10"/></g><g transform="translate(-34,2) scale(1,1)"><path fill="none" stroke="#000000" d="M 1504 537 L 1669 537" stroke-miterlimit="10"/></g><g transform="translate(-34,2) scale(1,1)"><path fill="none" stroke="#000000" d="M 1504 590 L 1669 590" stroke-miterlimit="10"/></g><g transform="translate(-34,2) scale(1,1)"><g><path fill="none" stroke="none"/><text fill="#000000" stroke="none" font-family="Arial" font-size="13px" font-style="normal" font-weight="bold" text-decoration="none" x="1544.5" y="531.5">SocketMonitor</text></g></g><g transform="translate(-34,2) scale(1,1)"><g><path fill="none" stroke="none"/><text fill="#000000" stroke="none" font-family="Arial" font-size="13px" font-style="normal" font-weight="normal" text-decoration="none" x="1509" y="554.5">-socketList: vector&lt;string&gt;</text></g></g><g transform="translate(-34,2) scale(1,1)"><g><path fill="none" stroke="none"/><text fill="#000000" stroke="none" font-family="Arial" font-size="13px" font-style="normal" font-weight="normal" text-decoration="none" x="1509" y="569.5">-writeFds</text></g></g><g transform="translate(-34,2) scale(1,1)"><g><path fill="none" stroke="none"/><text fill="#000000" stroke="none" font-family="Arial" font-size="13px" font-style="normal" font-weight="normal" text-decoration="none" x="1509" y="584.5">-readFds</text></g></g><g transform="translate(-34,2) scale(1,1)"><g><path fill="none" stroke="none"/><text fill="#000000" stroke="none" font-family="Arial" font-sizeRecv="13px" font-style="normal" font-weight="normal" text-decoration="none" x="1509" y="607.5">#SocketMonitor()</text></g></g><g transform="translate(-34,2) scale(1,1)"><path fill="#C0C0C0" stroke="none" d="M 1199.5 282.5 C 1199.5 262.8938896 1215.3938896 247 1235 247 C 1254.6061104 247 1270.5 262.8938896 1270.5 282.5 C 1270.5 302.1061104 1254.6061104 318 1235 318 C 1215.3938896 318 1199.5 302.1061104 1199.5 282.5 Z" opacity="0.2"/></g><g transform="translate(-34,2) scale(1,1)"><path fill="#ffffff" stroke="none" d="M 1192.5 275.5 C 1192.5 255.8938896 1208.3938896 240 1228 240 C 1247.6061104 240 1263.5 255.8938896 1263.5 275.5 C 1263.5 295.1061104 1247.6061104 311 1228 311 C 1208.3938896 311 1192.5 295.1061104 1192.5 275.5 Z"/></g><g transform="translate(-34,2) scale(1,1)"><path fill="none" stroke="#000000" d="M 1192.5 275.5 C 1192.5 255.8938896 1208.3938896 240 1228 240 C 1247.6061104 240 1263.5 255.8938896 1263.5 275.5 C 1263.5 295.1061104 1247.6061104 311 1228 311 C 1208.3938896 311 1192.5 295.1061104 1192.5 275.5 Z" stroke-miterlimit="10"/></g><g transform="translate(-34,2) scale(1,1)"><path fill="none" stroke="#000000" d="M 1152 336 L 1304 336" stroke-miterlimit="10"/></g><g transform="translate(-34,2) scale(1,1)"><g><path fill="none" stroke="none"/><text fill="#000000" stroke="none" font-family="Arial" font-size="13px" font-style="normal" font-weight="bold" text-decoration="none" x="1192.5" y="330.5">IMonitorable</text></g></g><g transform="translate(-34,2) scale(1,1)"><g><path fill="none" stroke="none"/><text fill="#000000" stroke="none" font-family="Arial" font-size="13px" font-style="normal" font-weight="normal" text-decoration="none" x="1157" y="353.5">+getSocket(): rSocket</text></g></g><g transform="translate(-34,2) scale(1,1)"><path fill="#C0C0C0" stroke="none" d="M 1555 51 C 1555 31.1177472 1571.1177472 15 1591 15 C 1610.8822528 15 1627 31.1177472 1627 51 C 1627 70.8822528 1610.8822528 87 1591 87 C 1571.1177472 87 1555 70.8822528 1555 51 Z" opacity="0.2"/></g><g transform="translate(-34,2) scale(1,1)"><path fill="#ffffff" stroke="none" d="M 1548 44 C 1548 24.1177472 1564.1177472 8 1584 8 C 1603.8822528 8 1620 24.1177472 1620 44 C 1620 63.8822528 1603.8822528 80 1584 80 C 1564.1177472 80 1548 63.8822528 1548 44 Z"/></g><g transform="translate(-34,2) scale(1,1)"><path fill="none" stroke="#000000" d="M 1548 44 C 1548 24.1177472 1564.1177472 8 1584 8 C 1603.8822528 8 1620 24.1177472 1620 44 C 1620 63.8822528 1603.8822528 80 1584 80 C 1564.1177472 80 1548 63.8822528 1548 44 Z" stroke-miterlimit="10"/></g><g transform="translate(-34,2) scale(1,1)"><path fill="none" stroke="#000000" d="M 1496 105 L 1672 105" stroke-miterlimit="10"/></g><g transform="translate(-34,2) scale(1,1)"><g><path fill="none" stroke="none"/><text fill="#000000" stroke="none" font-family="Arial" font-size="13px" font-style="normal" font-weight="bold" text-decoration="none" x="1553" y="99.5">IStringable</text></g></g><g transform="translate(-34,2) scale(1,1)"><g><path fill="none" stroke="none"/><text fill="#000000" stroke="none" font-family="Arial" font-size="13px" font-style="normal" font-weight="normal" text-decoration="none" x="1501" y="122.5">+toString(): string</text></g></g><g transform="translate(-34,2) scale(1,1)"><path fill="none" stroke="#000000" d="M 1151 298 Q 800 296 746 463" stroke-miterlimit="10"/></g><g transform="translate(-34,2) scale(1,1)"><path fill="none" stroke="#000000" d="M 1227 360 L 1225 551" stroke-miterlimit="10"/></g><g transform="translate(-34,2) scale(1,1)"><path fill="none" stroke="#000000" d="M 1224 654 L 1225 812" stroke-miterlimit="10"/></g><g transform="translate(-34,2) scale(1,1)"><path fill="none" stroke="#000000" d="M 1587 421 L 1586 511" stroke-miterlimit="10"/></g><g transform="translate(-34,2) scale(1,1)"><path fill="none" stroke="#000000" d="M 1251 239 Q 1312 80 1495 72" stroke-miterlimit="10"/></g><g transform="translate(-34,2) scale(1,1)"><path fill="none" stroke="#000000" d="M 1585 129 L 1587 251" stroke-miterlimit="10"/></g><g transform="translate(-34,2) scale(1,1)"><path fill="none" stroke="#000000" d="M 1673 71 Q 1920 80 1925 231" stroke-miterlimit="10"/></g><g transform="translate(-34,2) scale(1,1)"><rect fill="#C0C0C0" stroke="none" x="287" y="903" width="272" height="112" opacity="0.2"/></g><g transform="translate(-34,2) scale(1,1)"><rect fill="#ffffff" stroke="none" x="280" y="896" width="272" height="112"/></g><g transform="translate(-34,2) scale(1,1)"><path fill="none" stroke="#000000" d="M 280 896 L 552 896 L 552 1008 L 280 1008 L 280 896 Z Z" stroke-miterlimit="10"/></g><g transform="translate(-34,2) scale(1,1)"><path fill="none" stroke="#000000" d="M 280 921 L 552 921" stroke-miterlimit="10"/></g><g transform="translate(-34,2) scale(1,1)"><path fill="none" stroke="#000000" d="M 280 944 L 552 944" stroke-miterlimit="10"/></g><g transform="translate(-34,2) scale(1,1)"><g><path fill="none" stroke="none"/><text fill="#000000" stroke="none" font-family="Arial" font-size="13px" font-style="normal" font-weight="bold" text-decoration="none" x="380.5" y="915.5">BaseSocket</text></g></g><g transform="translate(-34,2) scale(1,1)"><g><path fill="none" stroke="none"/><text fill="#000000" stroke="none" font-family="Arial" font-size="13px" font-style="normal" font-weight="normal" text-decoration="none" x="285" y="938.5">-_udpSock: rSocket</text></g></g><g transform="translate(-34,2) scale(1,1)"><g><path fill="none" stroke="none"/><text fill="#000000" stroke="none" font-family="Arial" font-size="13px" font-style="normal" font-weight="normal" text-decoration="none" x="285" y="961.5">+send(buffer: Buffer const*): size_t</text></g></g><g transform="translate(-34,2) scale(1,1)"><g><path fill="none" stroke="none"/><text fill="#000000" stroke="none" font-family="Arial" font-size="13px" font-style="normal" font-weight="normal" text-decoration="none" x="285" y="976.5">+recv(buffer: Buffer&amp;, len: size_t): size_t</text></g></g><g transform="translate(-34,2) scale(1,1)"><g><path fill="none" stroke="none"/><text fill="#000000" stroke="none" font-family="Arial" font-size="13px" font-style="normal" font-weight="normal" text-decoration="none" x="285" y="991.5">+close(): void</text></g></g><g transform="translate(-34,2) scale(1,1)"><path fill="none" stroke="#000000" d="M 279 952 Q 232 952 234 1155" stroke-miterlimit="10"/></g><g transform="translate(-34,2) scale(1,1)"><path fill="none" stroke="#000000" d="M 553 969 Q 608 976 608 1123" stroke-miterlimit="10"/></g><g transform="translate(-34,2) scale(1,1)"><path fill="none" stroke="#000000" d="M 751 1172 Q 952 1176 951 1287" stroke-miterlimit="10"/></g></g></svg>