<svg version="1.1" xmlns="http://www.w3.org/2000/svg" xmlns:xlink="http://www.w3.org/1999/xlink" width="1721.0625" height="854.5"><defs/><g><g transform="translate(-66,10) scale(1,1)"><path fill="#C0C0C0" stroke="none" d="M 874 277 C 874 262.3644528 885.8644528 250.5 900.5 250.5 C 915.1355472 250.5 927 262.3644528 927 277 C 927 291.6355472 915.1355472 303.5 900.5 303.5 C 885.8644528 303.5 874 291.6355472 874 277 Z" opacity="0.2"/></g><g transform="translate(-66,10) scale(1,1)"><path fill="#ffffff" stroke="none" d="M 867 270 C 867 255.3644528 878.8644528 243.5 893.5 243.5 C 908.1355472 243.5 920 255.3644528 920 270 C 920 284.6355472 908.1355472 296.5 893.5 296.5 C 878.8644528 296.5 867 284.6355472 867 270 Z"/></g><g transform="translate(-66,10) scale(1,1)"><path fill="none" stroke="#000000" d="M 867 270 C 867 255.3644528 878.8644528 243.5 893.5 243.5 C 908.1355472 243.5 920 255.3644528 920 270 C 920 284.6355472 908.1355472 296.5 893.5 296.5 C 878.8644528 296.5 867 284.6355472 867 270 Z" stroke-miterlimit="10"/></g><g transform="translate(-66,10) scale(1,1)"><path fill="none" stroke="#000000" d="M 783 321.5 L 1004 321.5" stroke-miterlimit="10"/></g><g transform="translate(-66,10) scale(1,1)"><g><path fill="none" stroke="none"/><text fill="#000000" stroke="none" font-family="Arial" font-size="13px" font-style="normal" font-weight="bold" text-decoration="none" x="871" y="316">ISocket</text></g></g><g transform="translate(-66,10) scale(1,1)"><g><path fill="none" stroke="none"/><text fill="#000000" stroke="none" font-family="Arial" font-size="13px" font-style="normal" font-weight="normal" text-decoration="none" x="788" y="339">+send(buffer: Buffer const*): size_t</text></g></g><g transform="translate(-66,10) scale(1,1)"><g><path fill="none" stroke="none"/><text fill="#000000" stroke="none" font-family="Arial" font-size="13px" font-style="normal" font-weight="normal" text-decoration="none" x="788" y="354">+recv(): Buffer*</text></g></g><g transform="translate(-66,10) scale(1,1)"><g><path fill="none" stroke="none"/><text fill="#000000" stroke="none" font-family="Arial" font-size="13px" font-style="normal" font-weight="normal" text-decoration="none" x="788" y="369">+close(): void</text></g></g><g transform="translate(-66,10) scale(1,1)"><g><path fill="none" stroke="none"/><text fill="#000000" stroke="none" font-family="Arial" font-size="13px" font-style="normal" font-weight="normal" text-decoration="none" x="788" y="384">+isReadable(): bool</text></g></g><g transform="translate(-66,10) scale(1,1)"><g><path fill="none" stroke="none"/><text fill="#000000" stroke="none" font-family="Arial" font-size="13px" font-style="normal" font-weight="normal" text-decoration="none" x="788" y="399">+isWritable(): bool</text></g></g><g transform="translate(-66,10) scale(1,1)"><rect fill="#C0C0C0" stroke="none" x="446" y="625" width="301" height="100" opacity="0.2"/></g><g transform="translate(-66,10) scale(1,1)"><rect fill="#ffffff" stroke="none" x="439" y="618" width="301" height="100"/></g><g transform="translate(-66,10) scale(1,1)"><path fill="none" stroke="#000000" d="M 439 618 L 740 618 L 740 718 L 439 718 L 439 618 Z Z" stroke-miterlimit="10"/></g><g transform="translate(-66,10) scale(1,1)"><path fill="none" stroke="#000000" d="M 439 643 L 740 643" stroke-miterlimit="10"/></g><g transform="translate(-66,10) scale(1,1)"><path fill="none" stroke="#000000" d="M 439 696 L 740 696" stroke-miterlimit="10"/></g><g transform="translate(-66,10) scale(1,1)"><g><path fill="none" stroke="none"/><text fill="#000000" stroke="none" font-family="Arial" font-size="13px" font-style="normal" font-weight="bold" text-decoration="none" x="549" y="637.5">TcpConnector</text></g></g><g transform="translate(-66,10) scale(1,1)"><g><path fill="none" stroke="none"/><text fill="#000000" stroke="none" font-family="Arial" font-size="13px" font-style="normal" font-weight="normal" text-decoration="none" x="444" y="660.5">-_port: short int</text></g></g><g transform="translate(-66,10) scale(1,1)"><g><path fill="none" stroke="none"/><text fill="#000000" stroke="none" font-family="Arial" font-size="13px" font-style="normal" font-weight="normal" text-decoration="none" x="444" y="675.5">-_addr: string</text></g></g><g transform="translate(-66,10) scale(1,1)"><g><path fill="none" stroke="none"/><text fill="#000000" stroke="none" font-family="Arial" font-size="13px" font-style="normal" font-weight="normal" text-decoration="none" x="444" y="690.5">-_socket: int</text></g></g><g transform="translate(-66,10) scale(1,1)"><g><path fill="none" stroke="none"/><text fill="#000000" stroke="none" font-family="Arial" font-size="13px" font-style="normal" font-weight="normal" text-decoration="none" x="444" y="713.5">+TcpConnector(addr: string const&amp;, port: short int)</text></g></g><g transform="translate(-66,10) scale(1,1)"><rect fill="#C0C0C0" stroke="none" x="131" y="632.5" width="284" height="85" opacity="0.2"/></g><g transform="translate(-66,10) scale(1,1)"><rect fill="#ffffff" stroke="none" x="124" y="625.5" width="284" height="85"/></g><g transform="translate(-66,10) scale(1,1)"><path fill="none" stroke="#000000" d="M 124 625.5 L 408 625.5 L 408 710.5 L 124 710.5 L 124 625.5 Z Z" stroke-miterlimit="10"/></g><g transform="translate(-66,10) scale(1,1)"><path fill="none" stroke="#000000" d="M 124 650.5 L 408 650.5" stroke-miterlimit="10"/></g><g transform="translate(-66,10) scale(1,1)"><path fill="none" stroke="#000000" d="M 124 688.5 L 408 688.5" stroke-miterlimit="10"/></g><g transform="translate(-66,10) scale(1,1)"><g><path fill="none" stroke="none"/><text fill="#000000" stroke="none" font-family="Arial" font-size="13px" font-style="normal" font-weight="bold" text-decoration="none" x="234" y="645">UdpSocket</text></g></g><g transform="translate(-66,10) scale(1,1)"><g><path fill="none" stroke="none"/><text fill="#000000" stroke="none" font-family="Arial" font-size="13px" font-style="normal" font-weight="normal" text-decoration="none" x="129" y="668">-_port: short int</text></g></g><g transform="translate(-66,10) scale(1,1)"><g><path fill="none" stroke="none"/><text fill="#000000" stroke="none" font-family="Arial" font-size="13px" font-style="normal" font-weight="normal" text-decoration="none" x="129" y="683">-_socket: int</text></g></g><g transform="translate(-66,10) scale(1,1)"><g><path fill="none" stroke="none"/><text fill="#000000" stroke="none" font-family="Arial" font-size="13px" font-style="normal" font-weight="normal" text-decoration="none" x="129" y="706">+UdpSocket(port: short int)</text></g></g><g transform="translate(-66,10) scale(1,1)"><path fill="#C0C0C0" stroke="none" d="M 244.25 486.75 C 244.25 470.871812 257.121812 458 273 458 C 288.878188 458 301.75 470.871812 301.75 486.75 C 301.75 502.628188 288.878188 515.5 273 515.5 C 257.121812 515.5 244.25 502.628188 244.25 486.75 Z" opacity="0.2"/></g><g transform="translate(-66,10) scale(1,1)"><path fill="#ffffff" stroke="none" d="M 237.25 479.75 C 237.25 463.871812 250.121812 451 266 451 C 281.878188 451 294.75 463.871812 294.75 479.75 C 294.75 495.628188 281.878188 508.5 266 508.5 C 250.121812 508.5 237.25 495.628188 237.25 479.75 Z"/></g><g transform="translate(-66,10) scale(1,1)"><path fill="none" stroke="#000000" d="M 237.25 479.75 C 237.25 463.871812 250.121812 451 266 451 C 281.878188 451 294.75 463.871812 294.75 479.75 C 294.75 495.628188 281.878188 508.5 266 508.5 C 250.121812 508.5 237.25 495.628188 237.25 479.75 Z" stroke-miterlimit="10"/></g><g transform="translate(-66,10) scale(1,1)"><path fill="none" stroke="#000000" d="M 76 533.5 L 456 533.5" stroke-miterlimit="10"/></g><g transform="translate(-66,10) scale(1,1)"><g><path fill="none" stroke="none"/><text fill="#000000" stroke="none" font-family="Arial" font-size="13px" font-style="normal" font-weight="bold" text-decoration="none" x="232" y="528">IUdpSocket</text></g></g><g transform="translate(-66,10) scale(1,1)"><g><path fill="none" stroke="none"/><text fill="#000000" stroke="none" font-family="Arial" font-size="13px" font-style="normal" font-weight="normal" text-decoration="none" x="81" y="551">+bind(): bool</text></g></g><g transform="translate(-66,10) scale(1,1)"><g><path fill="none" stroke="none"/><text fill="#000000" stroke="none" font-family="Arial" font-size="13px" font-style="normal" font-weight="normal" text-decoration="none" x="81" y="566">+recvFrom(addr: string&amp;): Buffer*</text></g></g><g transform="translate(-66,10) scale(1,1)"><g><path fill="none" stroke="none"/><text fill="#000000" stroke="none" font-family="Arial" font-size="13px" font-style="normal" font-weight="normal" text-decoration="none" x="81" y="581">+sendTo(add: string const&amp;, buffer: Buffer const&amp;): size_t</text></g></g><g transform="translate(-66,10) scale(1,1)"><path fill="#C0C0C0" stroke="none" d="M 564.5 501.75 C 564.5 484.0768864 578.8268864 469.75 596.5 469.75 C 614.1731136 469.75 628.5 484.0768864 628.5 501.75 C 628.5 519.4231136 614.1731136 533.75 596.5 533.75 C 578.8268864 533.75 564.5 519.4231136 564.5 501.75 Z" opacity="0.2"/></g><g transform="translate(-66,10) scale(1,1)"><path fill="#ffffff" stroke="none" d="M 557.5 494.75 C 557.5 477.0768864 571.8268864 462.75 589.5 462.75 C 607.1731136 462.75 621.5 477.0768864 621.5 494.75 C 621.5 512.4231136 607.1731136 526.75 589.5 526.75 C 571.8268864 526.75 557.5 512.4231136 557.5 494.75 Z"/></g><g transform="translate(-66,10) scale(1,1)"><path fill="none" stroke="#000000" d="M 557.5 494.75 C 557.5 477.0768864 571.8268864 462.75 589.5 462.75 C 607.1731136 462.75 621.5 477.0768864 621.5 494.75 C 621.5 512.4231136 607.1731136 526.75 589.5 526.75 C 571.8268864 526.75 557.5 512.4231136 557.5 494.75 Z" stroke-miterlimit="10"/></g><g transform="translate(-66,10) scale(1,1)"><path fill="none" stroke="#000000" d="M 517.5 551.75 L 661.5 551.75" stroke-miterlimit="10"/></g><g transform="translate(-66,10) scale(1,1)"><g><path fill="none" stroke="none"/><text fill="#000000" stroke="none" font-family="Arial" font-size="13px" font-style="normal" font-weight="bold" text-decoration="none" x="547" y="546.25">ITcpConnector</text></g></g><g transform="translate(-66,10) scale(1,1)"><g><path fill="none" stroke="none"/><text fill="#000000" stroke="none" font-family="Arial" font-size="13px" font-style="normal" font-weight="normal" text-decoration="none" x="522.5" y="569.25">+connect(): bool</text></g></g><g transform="translate(-66,10) scale(1,1)"><path fill="none" stroke="#000000" d="M 267 450 Q 267 436 782 344" stroke-miterlimit="10"/></g><g transform="translate(-66,10) scale(1,1)"><path fill="none" stroke="#000000" d="M 267 625 Q 267 603 267 588" stroke-miterlimit="10"/></g><g transform="translate(-66,10) scale(1,1)"><path fill="none" stroke="#000000" d="M 590 617 Q 590 603 590 576" stroke-miterlimit="10"/></g><g transform="translate(-66,10) scale(1,1)"><path fill="none" stroke="#000000" d="M 590 462 Q 590 436 782 365" stroke-miterlimit="10"/></g><g transform="translate(-66,10) scale(1,1)"><path fill="#C0C0C0" stroke="none" d="M 1178 651 C 1178 636.3644528 1189.8644528 624.5 1204.5 624.5 C 1219.1355472 624.5 1231 636.3644528 1231 651 C 1231 665.6355472 1219.1355472 677.5 1204.5 677.5 C 1189.8644528 677.5 1178 665.6355472 1178 651 Z" opacity="0.2"/></g><g transform="translate(-66,10) scale(1,1)"><path fill="#ffffff" stroke="none" d="M 1171 644 C 1171 629.3644528 1182.8644528 617.5 1197.5 617.5 C 1212.1355472 617.5 1224 629.3644528 1224 644 C 1224 658.6355472 1212.1355472 670.5 1197.5 670.5 C 1182.8644528 670.5 1171 658.6355472 1171 644 Z"/></g><g transform="translate(-66,10) scale(1,1)"><path fill="none" stroke="#000000" d="M 1171 644 C 1171 629.3644528 1182.8644528 617.5 1197.5 617.5 C 1212.1355472 617.5 1224 629.3644528 1224 644 C 1224 658.6355472 1212.1355472 670.5 1197.5 670.5 C 1182.8644528 670.5 1171 658.6355472 1171 644 Z" stroke-miterlimit="10"/></g><g transform="translate(-66,10) scale(1,1)"><path fill="none" stroke="#000000" d="M 1085 695.5 L 1310 695.5" stroke-miterlimit="10"/></g><g transform="translate(-66,10) scale(1,1)"><g><path fill="none" stroke="none"/><text fill="#000000" stroke="none" font-family="Arial" font-size="13px" font-style="normal" font-weight="bold" text-decoration="none" x="1158.5" y="690">ITcpAcceptor</text></g></g><g transform="translate(-66,10) scale(1,1)"><g><path fill="none" stroke="none"/><text fill="#000000" stroke="none" font-family="Arial" font-size="13px" font-style="normal" font-weight="normal" text-decoration="none" x="1090" y="713">+accept(): ITcpSocket const*</text></g></g><g transform="translate(-66,10) scale(1,1)"><rect fill="#C0C0C0" stroke="none" x="1067" y="756.5" width="275" height="85" opacity="0.2"/></g><g transform="translate(-66,10) scale(1,1)"><rect fill="#ffffff" stroke="none" x="1060" y="749.5" width="275" height="85"/></g><g transform="translate(-66,10) scale(1,1)"><path fill="none" stroke="#000000" d="M 1060 749.5 L 1335 749.5 L 1335 834.5 L 1060 834.5 L 1060 749.5 Z Z" stroke-miterlimit="10"/></g><g transform="translate(-66,10) scale(1,1)"><path fill="none" stroke="#000000" d="M 1060 774.5 L 1335 774.5" stroke-miterlimit="10"/></g><g transform="translate(-66,10) scale(1,1)"><path fill="none" stroke="#000000" d="M 1060 812.5 L 1335 812.5" stroke-miterlimit="10"/></g><g transform="translate(-66,10) scale(1,1)"><g><path fill="none" stroke="none"/><text fill="#000000" stroke="none" font-family="Arial" font-size="13px" font-style="normal" font-weight="bold" text-decoration="none" x="1160.5" y="769">TcpAcceptor</text></g></g><g transform="translate(-66,10) scale(1,1)"><g><path fill="none" stroke="none"/><text fill="#000000" stroke="none" font-family="Arial" font-size="13px" font-style="normal" font-weight="normal" text-decoration="none" x="1065" y="792">-_port: short int</text></g></g><g transform="translate(-66,10) scale(1,1)"><g><path fill="none" stroke="none"/><text fill="#000000" stroke="none" font-family="Arial" font-size="13px" font-style="normal" font-weight="normal" text-decoration="none" x="1065" y="807">-_socket: int</text></g></g><g transform="translate(-66,10) scale(1,1)"><g><path fill="none" stroke="none"/><text fill="#000000" stroke="none" font-family="Arial" font-size="13px" font-style="normal" font-weight="normal" text-decoration="none" x="1065" y="830">+TcpAcceptor(port: short int)</text></g></g><g transform="translate(-66,10) scale(1,1)"><path fill="none" stroke="#000000" d="M 1198 749 Q 1198 735 1198 720" stroke-miterlimit="10"/></g><g transform="translate(-66,10) scale(1,1)"><rect fill="#C0C0C0" stroke="none" x="1119" y="235" width="288.75" height="192" opacity="0.2"/></g><g transform="translate(-66,10) scale(1,1)"><rect fill="#ffffff" stroke="none" x="1112" y="228" width="288.75" height="192"/></g><g transform="translate(-66,10) scale(1,1)"><path fill="none" stroke="#000000" d="M 1112 228 L 1400.75 228 L 1400.75 420 L 1112 420 L 1112 228 Z Z" stroke-miterlimit="10"/></g><g transform="translate(-66,10) scale(1,1)"><path fill="none" stroke="#000000" d="M 1112 253 L 1400.75 253" stroke-miterlimit="10"/></g><g transform="translate(-66,10) scale(1,1)"><path fill="none" stroke="#000000" d="M 1112 276 L 1400.75 276" stroke-miterlimit="10"/></g><g transform="translate(-66,10) scale(1,1)"><g><path fill="none" stroke="none"/><text fill="#000000" stroke="none" font-family="Arial" font-size="13px" font-style="normal" font-weight="bold" text-decoration="none" x="1238.875" y="247.5">Buffer</text></g></g><g transform="translate(-66,10) scale(1,1)"><g><path fill="none" stroke="none"/><text fill="#000000" stroke="none" font-family="Arial" font-size="13px" font-style="normal" font-weight="normal" text-decoration="none" x="1117" y="270.5">-buffer: vector&lt;uint8_t&gt;</text></g></g><g transform="translate(-66,10) scale(1,1)"><g><path fill="none" stroke="none"/><text fill="#000000" stroke="none" font-family="Arial" font-size="13px" font-style="normal" font-weight="normal" text-decoration="none" x="1117" y="293.5">+Buffer()</text></g></g><g transform="translate(-66,10) scale(1,1)"><g><path fill="none" stroke="none"/><text fill="#000000" stroke="none" font-family="Arial" font-size="13px" font-style="normal" font-weight="normal" text-decoration="none" x="1117" y="308.5">+append(data: T const&amp;): void</text></g></g><g transform="translate(-66,10) scale(1,1)"><g><path fill="none" stroke="none"/><text fill="#000000" stroke="none" font-family="Arial" font-size="13px" font-style="normal" font-weight="normal" text-decoration="none" x="1117" y="323.5">+setData(data: T const&amp;): void</text></g></g><g transform="translate(-66,10) scale(1,1)"><g><path fill="none" stroke="none"/><text fill="#000000" stroke="none" font-family="Arial" font-size="13px" font-style="normal" font-weight="normal" text-decoration="none" x="1117" y="338.5">+append(data: char const*, size: uint32_t): void</text></g></g><g transform="translate(-66,10) scale(1,1)"><g><path fill="none" stroke="none"/><text fill="#000000" stroke="none" font-family="Arial" font-size="13px" font-style="normal" font-weight="normal" text-decoration="none" x="1117" y="353.5">+setData(data: char const*, size: uint32_t): void</text></g></g><g transform="translate(-66,10) scale(1,1)"><g><path fill="none" stroke="none"/><text fill="#000000" stroke="none" font-family="Arial" font-size="13px" font-style="normal" font-weight="normal" text-decoration="none" x="1117" y="368.5">+consume(size: uint32_t): void</text></g></g><g transform="translate(-66,10) scale(1,1)"><g><path fill="none" stroke="none"/><text fill="#000000" stroke="none" font-family="Arial" font-size="13px" font-style="normal" font-weight="normal" text-decoration="none" x="1117" y="383.5">+empty(): bool</text></g></g><g transform="translate(-66,10) scale(1,1)"><g><path fill="none" stroke="none"/><text fill="#000000" stroke="none" font-family="Arial" font-size="13px" font-style="normal" font-weight="normal" text-decoration="none" x="1117" y="398.5">+data(): uint8_t const*</text></g></g><g transform="translate(-66,10) scale(1,1)"><g><path fill="none" stroke="none"/><text fill="#000000" stroke="none" font-family="Arial" font-size="13px" font-style="normal" font-weight="normal" text-decoration="none" x="1117" y="413.5">+data(): string const*</text></g></g><g transform="translate(-66,10) scale(1,1)"><rect fill="#C0C0C0" stroke="none" x="778" y="625" width="283" height="100" opacity="0.2"/></g><g transform="translate(-66,10) scale(1,1)"><rect fill="#ffffff" stroke="none" x="771" y="618" width="283" height="100"/></g><g transform="translate(-66,10) scale(1,1)"><path fill="none" stroke="#000000" d="M 771 618 L 1054 618 L 1054 718 L 771 718 L 771 618 Z Z" stroke-miterlimit="10"/></g><g transform="translate(-66,10) scale(1,1)"><path fill="none" stroke="#000000" d="M 771 643 L 1054 643" stroke-miterlimit="10"/></g><g transform="translate(-66,10) scale(1,1)"><path fill="none" stroke="#000000" d="M 771 696 L 1054 696" stroke-miterlimit="10"/></g><g transform="translate(-66,10) scale(1,1)"><g><path fill="none" stroke="none"/><text fill="#000000" stroke="none" font-family="Arial" font-size="13px" font-style="normal" font-weight="bold" text-decoration="none" x="881" y="637.5">TcpSocket</text></g></g><g transform="translate(-66,10) scale(1,1)"><g><path fill="none" stroke="none"/><text fill="#000000" stroke="none" font-family="Arial" font-size="13px" font-style="normal" font-weight="normal" text-decoration="none" x="776" y="660.5">-_port: short int</text></g></g><g transform="translate(-66,10) scale(1,1)"><g><path fill="none" stroke="none"/><text fill="#000000" stroke="none" font-family="Arial" font-size="13px" font-style="normal" font-weight="normal" text-decoration="none" x="776" y="675.5">-_addr: string</text></g></g><g transform="translate(-66,10) scale(1,1)"><g><path fill="none" stroke="none"/><text fill="#000000" stroke="none" font-family="Arial" font-size="13px" font-style="normal" font-weight="normal" text-decoration="none" x="776" y="690.5">-_socket: int</text></g></g><g transform="translate(-66,10) scale(1,1)"><g><path fill="none" stroke="none"/><text fill="#000000" stroke="none" font-family="Arial" font-size="13px" font-style="normal" font-weight="normal" text-decoration="none" x="776" y="713.5">+TcpSocket(addr: string const&amp;, port: short int)</text></g></g><g transform="translate(-66,10) scale(1,1)"><path fill="#C0C0C0" stroke="none" d="M 1035.5 494.25 C 1035.5 479.6144528 1047.3644528 467.75 1062 467.75 C 1076.6355472 467.75 1088.5 479.6144528 1088.5 494.25 C 1088.5 508.8855472 1076.6355472 520.75 1062 520.75 C 1047.3644528 520.75 1035.5 508.8855472 1035.5 494.25 Z" opacity="0.2"/></g><g transform="translate(-66,10) scale(1,1)"><path fill="#ffffff" stroke="none" d="M 1028.5 487.25 C 1028.5 472.6144528 1040.3644528 460.75 1055 460.75 C 1069.6355472 460.75 1081.5 472.6144528 1081.5 487.25 C 1081.5 501.8855472 1069.6355472 513.75 1055 513.75 C 1040.3644528 513.75 1028.5 501.8855472 1028.5 487.25 Z"/></g><g transform="translate(-66,10) scale(1,1)"><path fill="none" stroke="#000000" d="M 1028.5 487.25 C 1028.5 472.6144528 1040.3644528 460.75 1055 460.75 C 1069.6355472 460.75 1081.5 472.6144528 1081.5 487.25 C 1081.5 501.8855472 1069.6355472 513.75 1055 513.75 C 1040.3644528 513.75 1028.5 501.8855472 1028.5 487.25 Z" stroke-miterlimit="10"/></g><g transform="translate(-66,10) scale(1,1)"><path fill="none" stroke="#000000" d="M 942.5 538.75 L 1167.5 538.75" stroke-miterlimit="10"/></g><g transform="translate(-66,10) scale(1,1)"><g><path fill="none" stroke="none"/><text fill="#000000" stroke="none" font-family="Arial" font-size="13px" font-style="normal" font-weight="bold" text-decoration="none" x="1021.5" y="533.25">ITcpSocket</text></g></g><g transform="translate(-66,10) scale(1,1)"><g><path fill="none" stroke="none"/><text fill="#000000" stroke="none" font-family="Arial" font-size="13px" font-style="normal" font-weight="normal" text-decoration="none" x="947.5" y="556.25">+registerToMonitor(fds: fd_set*): void</text></g></g><g transform="translate(-66,10) scale(1,1)"><g><path fill="none" stroke="none"/><text fill="#000000" stroke="none" font-family="Arial" font-size="13px" font-style="normal" font-weight="normal" text-decoration="none" x="947.5" y="571.25">+deleteToMonitor(fds: fd_set*): void</text></g></g><g transform="translate(-66,10) scale(1,1)"><path fill="none" stroke="#000000" d="M 913 617 Q 913 603 955 578" stroke-miterlimit="10"/></g><g transform="translate(-66,10) scale(1,1)"><path fill="none" stroke="#000000" d="M 1056 460 Q 1056 436 1005 401" stroke-miterlimit="10"/></g><g transform="translate(-66,10) scale(1,1)"><path fill="#C0C0C0" stroke="none" d="M 1619.0625 284.5 C 1619.0625 270.4167376 1630.4792376 259 1644.5625 259 C 1658.6457624 259 1670.0625 270.4167376 1670.0625 284.5 C 1670.0625 298.5832624 1658.6457624 310 1644.5625 310 C 1630.4792376 310 1619.0625 298.5832624 1619.0625 284.5 Z" opacity="0.2"/></g><g transform="translate(-66,10) scale(1,1)"><path fill="#ffffff" stroke="none" d="M 1612.0625 277.5 C 1612.0625 263.4167376 1623.4792376 252 1637.5625 252 C 1651.6457624 252 1663.0625 263.4167376 1663.0625 277.5 C 1663.0625 291.5832624 1651.6457624 303 1637.5625 303 C 1623.4792376 303 1612.0625 291.5832624 1612.0625 277.5 Z"/></g><g transform="translate(-66,10) scale(1,1)"><path fill="none" stroke="#000000" d="M 1612.0625 277.5 C 1612.0625 263.4167376 1623.4792376 252 1637.5625 252 C 1651.6457624 252 1663.0625 263.4167376 1663.0625 277.5 C 1663.0625 291.5832624 1651.6457624 303 1637.5625 303 C 1623.4792376 303 1612.0625 291.5832624 1612.0625 277.5 Z" stroke-miterlimit="10"/></g><g transform="translate(-66,10) scale(1,1)"><path fill="none" stroke="#000000" d="M 1498.0625 328 L 1777.0625 328" stroke-miterlimit="10"/></g><g transform="translate(-66,10) scale(1,1)"><g><path fill="none" stroke="none"/><text fill="#000000" stroke="none" font-family="Arial" font-size="13px" font-style="normal" font-weight="bold" text-decoration="none" x="1593.5625" y="322.5">ISocketMonitor</text></g></g><g transform="translate(-66,10) scale(1,1)"><g><path fill="none" stroke="none"/><text fill="#000000" stroke="none" font-family="Arial" font-size="13px" font-style="normal" font-weight="normal" text-decoration="none" x="1503.0625" y="345.5">+registerSocket(socket: ITcpSocket*): void</text></g></g><g transform="translate(-66,10) scale(1,1)"><g><path fill="none" stroke="none"/><text fill="#000000" stroke="none" font-family="Arial" font-size="13px" font-style="normal" font-weight="normal" text-decoration="none" x="1503.0625" y="360.5">+isMonitored(socket: ITcpSocket const*): bool</text></g></g><g transform="translate(-66,10) scale(1,1)"><g><path fill="none" stroke="none"/><text fill="#000000" stroke="none" font-family="Arial" font-size="13px" font-style="normal" font-weight="normal" text-decoration="none" x="1503.0625" y="375.5">+deleteSocket(socket: ITcpSocket*): void</text></g></g><g transform="translate(-66,10) scale(1,1)"><g><path fill="none" stroke="none"/><text fill="#000000" stroke="none" font-family="Arial" font-size="13px" font-style="normal" font-weight="normal" text-decoration="none" x="1503.0625" y="390.5">+update(): int</text></g></g><g transform="translate(-66,10) scale(1,1)"><rect fill="#C0C0C0" stroke="none" x="1562.0625" y="475.75" width="165" height="100" opacity="0.2"/></g><g transform="translate(-66,10) scale(1,1)"><rect fill="#ffffff" stroke="none" x="1555.0625" y="468.75" width="165" height="100"/></g><g transform="translate(-66,10) scale(1,1)"><path fill="none" stroke="#000000" d="M 1555.0625 468.75 L 1720.0625 468.75 L 1720.0625 568.75 L 1555.0625 568.75 L 1555.0625 468.75 Z Z" stroke-miterlimit="10"/></g><g transform="translate(-66,10) scale(1,1)"><path fill="none" stroke="#000000" d="M 1555.0625 493.75 L 1720.0625 493.75" stroke-miterlimit="10"/></g><g transform="translate(-66,10) scale(1,1)"><path fill="none" stroke="#000000" d="M 1555.0625 546.75 L 1720.0625 546.75" stroke-miterlimit="10"/></g><g transform="translate(-66,10) scale(1,1)"><g><path fill="none" stroke="none"/><text fill="#000000" stroke="none" font-family="Arial" font-size="13px" font-style="normal" font-weight="bold" text-decoration="none" x="1595.5625" y="488.25">SocketMonitor</text></g></g><g transform="translate(-66,10) scale(1,1)"><g><path fill="none" stroke="none"/><text fill="#000000" stroke="none" font-family="Arial" font-size="13px" font-style="normal" font-weight="normal" text-decoration="none" x="1560.0625" y="511.25">-socketList: vector&lt;string&gt;</text></g></g><g transform="translate(-66,10) scale(1,1)"><g><path fill="none" stroke="none"/><text fill="#000000" stroke="none" font-family="Arial" font-size="13px" font-style="normal" font-weight="normal" text-decoration="none" x="1560.0625" y="526.25">-writeFds</text></g></g><g transform="translate(-66,10) scale(1,1)"><g><path fill="none" stroke="none"/><text fill="#000000" stroke="none" font-family="Arial" font-size="13px" font-style="normal" font-weight="normal" text-decoration="none" x="1560.0625" y="541.25">-readFds</text></g></g><g transform="translate(-66,10) scale(1,1)"><g><path fill="none" stroke="none"/><text fill="#000000" stroke="none" font-family="Arial" font-size="13px" font-style="normal" font-weight="normal" text-decoration="none" x="1560.0625" y="564.25">+SocketMonitor()</text></g></g><g transform="translate(-66,10) scale(1,1)"><path fill="none" stroke="#000000" d="M 1638 468 Q 1638 436 1638 397" stroke-miterlimit="10"/></g><g transform="translate(-66,10) scale(1,1)"><path fill="none" stroke="#000000" d="M 1198 617 Q 1198 603 1156 578" stroke-miterlimit="10"/></g><g transform="translate(-66,10) scale(1,1)"><path fill="#C0C0C0" stroke="none" d="M 1223.5 42.5 C 1223.5 22.893889599999998 1239.3938896 7 1259 7 C 1278.6061104 7 1294.5 22.893889599999998 1294.5 42.5 C 1294.5 62.106110400000006 1278.6061104 78 1259 78 C 1239.3938896 78 1223.5 62.106110400000006 1223.5 42.5 Z" opacity="0.2"/></g><g transform="translate(-66,10) scale(1,1)"><path fill="#ffffff" stroke="none" d="M 1216.5 35.5 C 1216.5 15.893889599999998 1232.3938896 0 1252 0 C 1271.6061104 0 1287.5 15.893889599999998 1287.5 35.5 C 1287.5 55.106110400000006 1271.6061104 71 1252 71 C 1232.3938896 71 1216.5 55.106110400000006 1216.5 35.5 Z"/></g><g transform="translate(-66,10) scale(1,1)"><path fill="none" stroke="#000000" d="M 1216.5 35.5 C 1216.5 15.893889599999998 1232.3938896 0 1252 0 C 1271.6061104 0 1287.5 15.893889599999998 1287.5 35.5 C 1287.5 55.106110400000006 1271.6061104 71 1252 71 C 1232.3938896 71 1216.5 55.106110400000006 1216.5 35.5 Z" stroke-miterlimit="10"/></g><g transform="translate(-66,10) scale(1,1)"><path fill="none" stroke="#000000" d="M 1176 96 L 1328 96" stroke-miterlimit="10"/></g><g transform="translate(-66,10) scale(1,1)"><g><path fill="none" stroke="none"/><text fill="#000000" stroke="none" font-family="Arial" font-size="13px" font-style="normal" font-weight="bold" text-decoration="none" x="1221" y="90.5">IStringable</text></g></g><g transform="translate(-66,10) scale(1,1)"><g><path fill="none" stroke="none"/><text fill="#000000" stroke="none" font-family="Arial" font-size="13px" font-style="normal" font-weight="normal" text-decoration="none" x="1181" y="113.5">+toString(): string</text></g></g><g transform="translate(-66,10) scale(1,1)"><path fill="none" stroke="#000000" d="M 1175 72 Q 944 112 913 243" stroke-miterlimit="10"/></g><g transform="translate(-66,10) scale(1,1)"><path fill="none" stroke="#000000" d="M 1329 71 Q 1584 112 1619 251" stroke-miterlimit="10"/></g><g transform="translate(-66,10) scale(1,1)"><path fill="none" stroke="#000000" d="M 1253 120 L 1255 227" stroke-miterlimit="10"/></g></g></svg>