<svg version="1.1" xmlns="http://www.w3.org/2000/svg" xmlns:xlink="http://www.w3.org/1999/xlink" width="1105.984130859375" height="447"><defs/><g><g transform="translate(-10,-10) scale(1,1)"><path fill="#C0C0C0" stroke="none" d="M 304.25 69 C 304.25 54.364452799999995 316.1144528 42.5 330.75 42.5 C 345.3855472 42.5 357.25 54.364452799999995 357.25 69 C 357.25 83.6355472 345.3855472 95.5 330.75 95.5 C 316.1144528 95.5 304.25 83.6355472 304.25 69 Z" opacity="0.2"/></g><g transform="translate(-10,-10) scale(1,1)"><path fill="#ffffff" stroke="none" d="M 297.25 62 C 297.25 47.364452799999995 309.1144528 35.5 323.75 35.5 C 338.3855472 35.5 350.25 47.364452799999995 350.25 62 C 350.25 76.6355472 338.3855472 88.5 323.75 88.5 C 309.1144528 88.5 297.25 76.6355472 297.25 62 Z"/></g><g transform="translate(-10,-10) scale(1,1)"><path fill="none" stroke="#000000" d="M 297.25 62 C 297.25 47.364452799999995 309.1144528 35.5 323.75 35.5 C 338.3855472 35.5 350.25 47.364452799999995 350.25 62 C 350.25 76.6355472 338.3855472 88.5 323.75 88.5 C 309.1144528 88.5 297.25 76.6355472 297.25 62 Z" stroke-miterlimit="10"/></g><g transform="translate(-10,-10) scale(1,1)"><path fill="none" stroke="#000000" d="M 213.25 113.5 L 434.25 113.5" stroke-miterlimit="10"/></g><g transform="translate(-10,-10) scale(1,1)"><g><path fill="none" stroke="none"/><text fill="#000000" stroke="none" font-family="Arial" font-size="13px" font-style="normal" font-weight="bold" text-decoration="none" x="301.25" y="108">ISocket</text></g></g><g transform="translate(-10,-10) scale(1,1)"><g><path fill="none" stroke="none"/><text fill="#000000" stroke="none" font-family="Arial" font-size="13px" font-style="normal" font-weight="normal" text-decoration="none" x="218.25" y="131">+send(buffer: IBuffer const&amp;): size_t</text></g></g><g transform="translate(-10,-10) scale(1,1)"><g><path fill="none" stroke="none"/><text fill="#000000" stroke="none" font-family="Arial" font-size="13px" font-style="normal" font-weight="normal" text-decoration="none" x="218.25" y="146">+recv(): IBuffer&amp;</text></g></g><g transform="translate(-10,-10) scale(1,1)"><g><path fill="none" stroke="none"/><text fill="#000000" stroke="none" font-family="Arial" font-size="13px" font-style="normal" font-weight="normal" text-decoration="none" x="218.25" y="161">+close(): void</text></g></g><g transform="translate(-10,-10) scale(1,1)"><g><path fill="none" stroke="none"/><text fill="#000000" stroke="none" font-family="Arial" font-size="13px" font-style="normal" font-weight="normal" text-decoration="none" x="218.25" y="176">+isReadable(): bool</text></g></g><g transform="translate(-10,-10) scale(1,1)"><g><path fill="none" stroke="none"/><text fill="#000000" stroke="none" font-family="Arial" font-size="13px" font-style="normal" font-weight="normal" text-decoration="none" x="218.25" y="191">+isWritable(): bool</text></g></g><g transform="translate(-10,-10) scale(1,1)"><rect fill="#C0C0C0" stroke="none" x="342" y="354" width="301" height="100" opacity="0.2"/></g><g transform="translate(-10,-10) scale(1,1)"><rect fill="#ffffff" stroke="none" x="335" y="347" width="301" height="100"/></g><g transform="translate(-10,-10) scale(1,1)"><path fill="none" stroke="#000000" d="M 335 347 L 636 347 L 636 447 L 335 447 L 335 347 Z Z" stroke-miterlimit="10"/></g><g transform="translate(-10,-10) scale(1,1)"><path fill="none" stroke="#000000" d="M 335 372 L 636 372" stroke-miterlimit="10"/></g><g transform="translate(-10,-10) scale(1,1)"><path fill="none" stroke="#000000" d="M 335 425 L 636 425" stroke-miterlimit="10"/></g><g transform="translate(-10,-10) scale(1,1)"><g><path fill="none" stroke="none"/><text fill="#000000" stroke="none" font-family="Arial" font-size="13px" font-style="normal" font-weight="bold" text-decoration="none" x="445" y="366.5">TcpConnector</text></g></g><g transform="translate(-10,-10) scale(1,1)"><g><path fill="none" stroke="none"/><text fill="#000000" stroke="none" font-family="Arial" font-size="13px" font-style="normal" font-weight="normal" text-decoration="none" x="340" y="389.5">-_port: short int</text></g></g><g transform="translate(-10,-10) scale(1,1)"><g><path fill="none" stroke="none"/><text fill="#000000" stroke="none" font-family="Arial" font-size="13px" font-style="normal" font-weight="normal" text-decoration="none" x="340" y="404.5">-_addr: string</text></g></g><g transform="translate(-10,-10) scale(1,1)"><g><path fill="none" stroke="none"/><text fill="#000000" stroke="none" font-family="Arial" font-size="13px" font-style="normal" font-weight="normal" text-decoration="none" x="340" y="419.5">-_socket: int</text></g></g><g transform="translate(-10,-10) scale(1,1)"><g><path fill="none" stroke="none"/><text fill="#000000" stroke="none" font-family="Arial" font-size="13px" font-style="normal" font-weight="normal" text-decoration="none" x="340" y="442.5">+TcpConnector(addr: string const&amp;, port: short int)</text></g></g><g transform="translate(-10,-10) scale(1,1)"><rect fill="#C0C0C0" stroke="none" x="27" y="354" width="284" height="100" opacity="0.2"/></g><g transform="translate(-10,-10) scale(1,1)"><rect fill="#ffffff" stroke="none" x="20" y="347" width="284" height="100"/></g><g transform="translate(-10,-10) scale(1,1)"><path fill="none" stroke="#000000" d="M 20 347 L 304 347 L 304 447 L 20 447 L 20 347 Z Z" stroke-miterlimit="10"/></g><g transform="translate(-10,-10) scale(1,1)"><path fill="none" stroke="#000000" d="M 20 372 L 304 372" stroke-miterlimit="10"/></g><g transform="translate(-10,-10) scale(1,1)"><path fill="none" stroke="#000000" d="M 20 425 L 304 425" stroke-miterlimit="10"/></g><g transform="translate(-10,-10) scale(1,1)"><g><path fill="none" stroke="none"/><text fill="#000000" stroke="none" font-family="Arial" font-size="13px" font-style="normal" font-weight="bold" text-decoration="none" x="130" y="366.5">UdpSocket</text></g></g><g transform="translate(-10,-10) scale(1,1)"><g><path fill="none" stroke="none"/><text fill="#000000" stroke="none" font-family="Arial" font-size="13px" font-style="normal" font-weight="normal" text-decoration="none" x="25" y="389.5">-_port: short int</text></g></g><g transform="translate(-10,-10) scale(1,1)"><g><path fill="none" stroke="none"/><text fill="#000000" stroke="none" font-family="Arial" font-size="13px" font-style="normal" font-weight="normal" text-decoration="none" x="25" y="404.5">-_addr: string</text></g></g><g transform="translate(-10,-10) scale(1,1)"><g><path fill="none" stroke="none"/><text fill="#000000" stroke="none" font-family="Arial" font-size="13px" font-style="normal" font-weight="normal" text-decoration="none" x="25" y="419.5">-_socket: int</text></g></g><g transform="translate(-10,-10) scale(1,1)"><g><path fill="none" stroke="none"/><text fill="#000000" stroke="none" font-family="Arial" font-size="13px" font-style="normal" font-weight="normal" text-decoration="none" x="25" y="442.5">+UdpSocket(addr: string const&amp;, port: short int)</text></g></g><g transform="translate(-10,-10) scale(1,1)"><path fill="#C0C0C0" stroke="none" d="M 157.5 262.5 C 157.5 256.1487248 162.6487248 251 169 251 C 175.3512752 251 180.5 256.1487248 180.5 262.5 C 180.5 268.8512752 175.3512752 274 169 274 C 162.6487248 274 157.5 268.8512752 157.5 262.5 Z" opacity="0.2"/></g><g transform="translate(-10,-10) scale(1,1)"><path fill="#ffffff" stroke="none" d="M 150.5 255.5 C 150.5 249.1487248 155.6487248 244 162 244 C 168.3512752 244 173.5 249.1487248 173.5 255.5 C 173.5 261.8512752 168.3512752 267 162 267 C 155.6487248 267 150.5 261.8512752 150.5 255.5 Z"/></g><g transform="translate(-10,-10) scale(1,1)"><path fill="none" stroke="#000000" d="M 150.5 255.5 C 150.5 249.1487248 155.6487248 244 162 244 C 168.3512752 244 173.5 249.1487248 173.5 255.5 C 173.5 261.8512752 168.3512752 267 162 267 C 155.6487248 267 150.5 261.8512752 150.5 255.5 Z" stroke-miterlimit="10"/></g><g transform="translate(-10,-10) scale(1,1)"><path fill="none" stroke="#000000" d="M 118 292 L 206 292" stroke-miterlimit="10"/></g><g transform="translate(-10,-10) scale(1,1)"><g><path fill="none" stroke="none"/><text fill="#000000" stroke="none" font-family="Arial" font-size="13px" font-style="normal" font-weight="bold" text-decoration="none" x="128" y="286.5">IUdpSocket</text></g></g><g transform="translate(-10,-10) scale(1,1)"><g><path fill="none" stroke="none"/><text fill="#000000" stroke="none" font-family="Arial" font-size="13px" font-style="normal" font-weight="normal" text-decoration="none" x="123" y="309.5">+bind(): bool</text></g></g><g transform="translate(-10,-10) scale(1,1)"><path fill="#C0C0C0" stroke="none" d="M 481 262.5 C 481 256.1487248 486.1487248 251 492.5 251 C 498.8512752 251 504 256.1487248 504 262.5 C 504 268.8512752 498.8512752 274 492.5 274 C 486.1487248 274 481 268.8512752 481 262.5 Z" opacity="0.2"/></g><g transform="translate(-10,-10) scale(1,1)"><path fill="#ffffff" stroke="none" d="M 474 255.5 C 474 249.1487248 479.1487248 244 485.5 244 C 491.8512752 244 497 249.1487248 497 255.5 C 497 261.8512752 491.8512752 267 485.5 267 C 479.1487248 267 474 261.8512752 474 255.5 Z"/></g><g transform="translate(-10,-10) scale(1,1)"><path fill="none" stroke="#000000" d="M 474 255.5 C 474 249.1487248 479.1487248 244 485.5 244 C 491.8512752 244 497 249.1487248 497 255.5 C 497 261.8512752 491.8512752 267 485.5 267 C 479.1487248 267 474 261.8512752 474 255.5 Z" stroke-miterlimit="10"/></g><g transform="translate(-10,-10) scale(1,1)"><path fill="none" stroke="#000000" d="M 432.265869140625 292 L 538.734130859375 292" stroke-miterlimit="10"/></g><g transform="translate(-10,-10) scale(1,1)"><g><path fill="none" stroke="none"/><text fill="#000000" stroke="none" font-family="Arial" font-size="13px" font-style="normal" font-weight="bold" text-decoration="none" x="443" y="286.5">ITcpConnector</text></g></g><g transform="translate(-10,-10) scale(1,1)"><g><path fill="none" stroke="none"/><text fill="#000000" stroke="none" font-family="Arial" font-size="13px" font-style="normal" font-weight="normal" text-decoration="none" x="437.265869140625" y="309.5">+connect(): bool</text></g></g><g transform="translate(-10,-10) scale(1,1)"><path fill="none" stroke="#000000" d="M 163 243 Q 163 228 212 194" stroke-miterlimit="10"/></g><g transform="translate(-10,-10) scale(1,1)"><path fill="none" stroke="#000000" d="M 163 346 Q 163 332 163 316" stroke-miterlimit="10"/></g><g transform="translate(-10,-10) scale(1,1)"><path fill="none" stroke="#000000" d="M 486 346 Q 486 332 486 316" stroke-miterlimit="10"/></g><g transform="translate(-10,-10) scale(1,1)"><path fill="none" stroke="#000000" d="M 486 243 Q 486 228 435 193" stroke-miterlimit="10"/></g><g transform="translate(-10,-10) scale(1,1)"><path fill="#C0C0C0" stroke="none" d="M 702.734130859375 99 C 702.734130859375 92.6487248 707.882855659375 87.5 714.234130859375 87.5 C 720.585406059375 87.5 725.734130859375 92.6487248 725.734130859375 99 C 725.734130859375 105.3512752 720.585406059375 110.5 714.234130859375 110.5 C 707.882855659375 110.5 702.734130859375 105.3512752 702.734130859375 99 Z" opacity="0.2"/></g><g transform="translate(-10,-10) scale(1,1)"><path fill="#ffffff" stroke="none" d="M 695.734130859375 92 C 695.734130859375 85.6487248 700.882855659375 80.5 707.234130859375 80.5 C 713.585406059375 80.5 718.734130859375 85.6487248 718.734130859375 92 C 718.734130859375 98.3512752 713.585406059375 103.5 707.234130859375 103.5 C 700.882855659375 103.5 695.734130859375 98.3512752 695.734130859375 92 Z"/></g><g transform="translate(-10,-10) scale(1,1)"><path fill="none" stroke="#000000" d="M 695.734130859375 92 C 695.734130859375 85.6487248 700.882855659375 80.5 707.234130859375 80.5 C 713.585406059375 80.5 718.734130859375 85.6487248 718.734130859375 92 C 718.734130859375 98.3512752 713.585406059375 103.5 707.234130859375 103.5 C 700.882855659375 103.5 695.734130859375 98.3512752 695.734130859375 92 Z" stroke-miterlimit="10"/></g><g transform="translate(-10,-10) scale(1,1)"><path fill="none" stroke="#000000" d="M 628.234130859375 128.5 L 786.234130859375 128.5" stroke-miterlimit="10"/></g><g transform="translate(-10,-10) scale(1,1)"><g><path fill="none" stroke="none"/><text fill="#000000" stroke="none" font-family="Arial" font-size="13px" font-style="normal" font-weight="bold" text-decoration="none" x="668.234130859375" y="123">ITcpAcceptor</text></g></g><g transform="translate(-10,-10) scale(1,1)"><g><path fill="none" stroke="none"/><text fill="#000000" stroke="none" font-family="Arial" font-size="13px" font-style="normal" font-weight="normal" text-decoration="none" x="633.234130859375" y="146">+accept(): ISocket const*</text></g></g><g transform="translate(-10,-10) scale(1,1)"><rect fill="#C0C0C0" stroke="none" x="576.734130859375" y="250" width="275" height="73" opacity="0.2"/></g><g transform="translate(-10,-10) scale(1,1)"><rect fill="#ffffff" stroke="none" x="569.734130859375" y="243" width="275" height="73"/></g><g transform="translate(-10,-10) scale(1,1)"><path fill="none" stroke="#000000" d="M 569.734130859375 243 L 844.734130859375 243 L 844.734130859375 316 L 569.734130859375 316 L 569.734130859375 243 Z Z" stroke-miterlimit="10"/></g><g transform="translate(-10,-10) scale(1,1)"><path fill="none" stroke="#000000" d="M 569.734130859375 268 L 844.734130859375 268" stroke-miterlimit="10"/></g><g transform="translate(-10,-10) scale(1,1)"><path fill="none" stroke="#000000" d="M 569.734130859375 291 L 844.734130859375 291" stroke-miterlimit="10"/></g><g transform="translate(-10,-10) scale(1,1)"><g><path fill="none" stroke="none"/><text fill="#000000" stroke="none" font-family="Arial" font-size="13px" font-style="normal" font-weight="bold" text-decoration="none" x="670.234130859375" y="262.5">TcpAcceptor</text></g></g><g transform="translate(-10,-10) scale(1,1)"><g><path fill="none" stroke="none"/><text fill="#000000" stroke="none" font-family="Arial" font-size="13px" font-style="normal" font-weight="normal" text-decoration="none" x="574.734130859375" y="285.5">-_port: short int</text></g></g><g transform="translate(-10,-10) scale(1,1)"><g><path fill="none" stroke="none"/><text fill="#000000" stroke="none" font-family="Arial" font-size="13px" font-style="normal" font-weight="normal" text-decoration="none" x="574.734130859375" y="308.5">+TcpAcceptor(port: short int)</text></g></g><g transform="translate(-10,-10) scale(1,1)"><path fill="none" stroke="#000000" d="M 708 242 Q 708 228 707 153" stroke-miterlimit="10"/></g><g transform="translate(-10,-10) scale(1,1)"><rect fill="#C0C0C0" stroke="none" x="824.234130859375" y="27" width="288.75" height="192" opacity="0.2"/></g><g transform="translate(-10,-10) scale(1,1)"><rect fill="#ffffff" stroke="none" x="817.234130859375" y="20" width="288.75" height="192"/></g><g transform="translate(-10,-10) scale(1,1)"><path fill="none" stroke="#000000" d="M 817.234130859375 20 L 1105.984130859375 20 L 1105.984130859375 212 L 817.234130859375 212 L 817.234130859375 20 Z Z" stroke-miterlimit="10"/></g><g transform="translate(-10,-10) scale(1,1)"><path fill="none" stroke="#000000" d="M 817.234130859375 45 L 1105.984130859375 45" stroke-miterlimit="10"/></g><g transform="translate(-10,-10) scale(1,1)"><path fill="none" stroke="#000000" d="M 817.234130859375 68 L 1105.984130859375 68" stroke-miterlimit="10"/></g><g transform="translate(-10,-10) scale(1,1)"><g><path fill="none" stroke="none"/><text fill="#000000" stroke="none" font-family="Arial" font-size="13px" font-style="normal" font-weight="bold" text-decoration="none" x="944.109130859375" y="39.5">Buffer</text></g></g><g transform="translate(-10,-10) scale(1,1)"><g><path fill="none" stroke="none"/><text fill="#000000" stroke="none" font-family="Arial" font-size="13px" font-style="normal" font-weight="normal" text-decoration="none" x="822.234130859375" y="62.5">-buffer: vector&lt;uint8_t&gt;</text></g></g><g transform="translate(-10,-10) scale(1,1)"><g><path fill="none" stroke="none"/><text fill="#000000" stroke="none" font-family="Arial" font-size="13px" font-style="normal" font-weight="normal" text-decoration="none" x="822.234130859375" y="85.5">+Buffer()</text></g></g><g transform="translate(-10,-10) scale(1,1)"><g><path fill="none" stroke="none"/><text fill="#000000" stroke="none" font-family="Arial" font-size="13px" font-style="normal" font-weight="normal" text-decoration="none" x="822.234130859375" y="100.5">+void append(data: T const&amp;): void</text></g></g><g transform="translate(-10,-10) scale(1,1)"><g><path fill="none" stroke="none"/><text fill="#000000" stroke="none" font-family="Arial" font-size="13px" font-style="normal" font-weight="normal" text-decoration="none" x="822.234130859375" y="115.5">+void setData(data: T const&amp;): void</text></g></g><g transform="translate(-10,-10) scale(1,1)"><g><path fill="none" stroke="none"/><text fill="#000000" stroke="none" font-family="Arial" font-size="13px" font-style="normal" font-weight="normal" text-decoration="none" x="822.234130859375" y="130.5">+append(data: char const*, size: uint32_t): void</text></g></g><g transform="translate(-10,-10) scale(1,1)"><g><path fill="none" stroke="none"/><text fill="#000000" stroke="none" font-family="Arial" font-size="13px" font-style="normal" font-weight="normal" text-decoration="none" x="822.234130859375" y="145.5">+setData(data: char const*, size: uint32_t): void</text></g></g><g transform="translate(-10,-10) scale(1,1)"><g><path fill="none" stroke="none"/><text fill="#000000" stroke="none" font-family="Arial" font-size="13px" font-style="normal" font-weight="normal" text-decoration="none" x="822.234130859375" y="160.5">+consume(size: uint32_t): void</text></g></g><g transform="translate(-10,-10) scale(1,1)"><g><path fill="none" stroke="none"/><text fill="#000000" stroke="none" font-family="Arial" font-size="13px" font-style="normal" font-weight="normal" text-decoration="none" x="822.234130859375" y="175.5">+empty(): bool</text></g></g><g transform="translate(-10,-10) scale(1,1)"><g><path fill="none" stroke="none"/><text fill="#000000" stroke="none" font-family="Arial" font-size="13px" font-style="normal" font-weight="normal" text-decoration="none" x="822.234130859375" y="190.5">+data(): uint8_t const*</text></g></g><g transform="translate(-10,-10) scale(1,1)"><g><path fill="none" stroke="none"/><text fill="#000000" stroke="none" font-family="Arial" font-size="13px" font-style="normal" font-weight="normal" text-decoration="none" x="822.234130859375" y="205.5">+data(): string const*</text></g></g></g></svg>